<?xml version="1.0" encoding="UTF-8"?>
<svg version="1.1" xmlns="http://www.w3.org/2000/svg" width="629" height="663">
<path d="M0 0 C2.2765454 -0.00118924 4.55309065 -0.00271407 6.82963562 -0.00454712 C14.06221775 -0.00824512 21.29476745 -0.00075828 28.52734375 0.0078125 C31.01428219 0.01008617 33.50122067 0.01232396 35.98815918 0.01452637 C51.74407032 0.03017521 67.49986204 0.06662702 83.2556839 0.12165833 C86.28908648 0.13220162 89.32249073 0.14199983 92.355896 0.1517334 C101.95444668 0.1843597 111.55229297 0.23938162 121.15036011 0.34234619 C123.83188468 0.37085057 126.51290501 0.38948153 129.1946106 0.40325928 C132.82166861 0.42415184 136.4475168 0.46985811 140.07421875 0.5234375 C141.08675217 0.52467621 142.09928558 0.52591492 143.14250183 0.52719116 C152.0662378 0.71300244 160.70692836 2.99956034 167.71484375 8.7578125 C168.4625 9.34820312 169.21015625 9.93859375 169.98046875 10.546875 C176.40651608 17.23562238 180.89055143 25.30259232 185.08984375 33.5078125 C185.59926514 34.49692627 186.10868652 35.48604004 186.63354492 36.50512695 C201.8202587 66.28794721 214.93379118 97.15260898 226.33984375 128.5703125 C226.58694092 129.24626465 226.83403809 129.9222168 227.08862305 130.61865234 C236.10719796 155.40229077 243.13931279 180.68489773 249.44152832 206.26745605 C250.15074577 209.13426947 250.87070768 211.99834317 251.59059906 214.86249161 C252.29340147 217.66337689 252.99036224 220.46568989 253.6855011 223.26848602 C254.16851678 225.21274882 254.6556644 227.15598367 255.14294434 229.09918213 C256.70284316 235.45778202 257.93498977 241.60437985 258.46484375 248.1328125 C204.32342211 254.48089513 151.11606095 257.20063896 96.62353516 255.48925781 C92.2376803 255.35152441 87.85172974 255.23248531 83.46484375 255.1328125 C82.71560638 255.11508789 81.96636902 255.09736328 81.19442749 255.07910156 C70.61934832 254.85900674 60.62150011 255.48184272 50.15234375 257.1328125 C47.65668133 257.51067239 45.1606017 257.88578963 42.6640625 258.2578125 C41.58987061 258.42539062 40.51567871 258.59296875 39.40893555 258.765625 C36.72044792 259.10093352 34.16980101 259.20283566 31.46484375 259.1328125 C28.76829292 253.25760023 26.88291515 247.27555958 25.08984375 241.0703125 C24.63520752 239.50095947 24.63520752 239.50095947 24.17138672 237.89990234 C22.12759743 230.72668728 20.26344401 223.52621696 18.58984375 216.2578125 C18.28554443 214.95058228 18.28554443 214.95058228 17.97509766 213.61694336 C16.6833446 207.81186986 15.9309919 202.06000472 15.46484375 196.1328125 C-5.11816861 197.04962481 -25.67904141 198.11022116 -46.22265625 199.6953125 C-47.48349533 199.79122177 -47.48349533 199.79122177 -48.76980591 199.8890686 C-51.15417232 200.07168834 -53.53808254 200.25926723 -55.921875 200.44921875 C-56.97243576 200.53039948 -56.97243576 200.53039948 -58.04421997 200.61322021 C-61.60452053 200.90555871 -65.0495377 201.34538474 -68.53515625 202.1328125 C-82.43783276 269.13598955 -91.4578699 335.99199939 -97.53515625 404.1328125 C-96.45661377 404.12757568 -95.37807129 404.12233887 -94.2668457 404.11694336 C-75.57665878 404.03454982 -56.90384269 404.00054945 -38.22265625 404.6328125 C-20.72469685 405.222439 -3.22825833 405.21674964 14.27734375 405.1953125 C14.97790012 405.19445648 15.6784565 405.19360046 16.40024185 405.19271851 C25.08846601 405.18128959 33.77665801 405.16109941 42.46484375 405.1328125 C42.4876088 404.44665863 42.51037384 403.76050476 42.53382874 403.05355835 C42.99840027 389.34930518 43.5468574 375.67456222 44.7121582 362.01025391 C44.90907032 359.67814706 45.09042512 357.34510496 45.27148438 355.01171875 C45.39622836 353.50252892 45.52184167 351.99341062 45.6484375 350.484375 C45.70059921 349.7991275 45.75276093 349.11388 45.8065033 348.40786743 C46.11976017 344.89016273 46.40203817 342.03802977 48.46484375 339.1328125 C50.88365173 338.44419861 50.88365173 338.44419861 53.97631836 338.17553711 C55.14043243 338.06530716 56.30454651 337.95507721 57.50393677 337.84150696 C58.77880951 337.74041122 60.05368225 337.63931549 61.3671875 337.53515625 C62.70325615 337.41593594 64.03918241 337.29511017 65.37496948 337.17277527 C68.96816861 336.84889355 72.56299353 336.54916899 76.15875626 336.25528717 C79.16011523 336.00783732 82.1604207 335.74871573 85.16079617 335.48965454 C92.60102859 334.84747486 100.04307369 334.23010883 107.48642635 333.62528992 C112.52250335 333.21442837 117.5552934 332.77328483 122.58761597 332.31912231 C143.80205565 330.42157828 164.96767184 329.85721517 186.25933456 329.82363129 C188.25017375 329.82035718 190.24100845 329.81464492 192.23184204 329.80889893 C219.19277503 329.76924391 219.19277503 329.76924391 230.46484375 332.1328125 C231.09536652 332.26307831 231.72588928 332.39334412 232.3755188 332.52755737 C237.21331588 333.53583268 242.02727573 334.63623944 246.83984375 335.7578125 C248.26941044 336.08646345 249.69909756 336.41459099 251.12890625 336.7421875 C254.57562123 337.53306377 258.02067649 338.33090421 261.46484375 339.1328125 C261.51457292 344.2556825 261.5507182 349.37840952 261.57470703 354.50146484 C261.58471593 356.24139862 261.59832718 357.9813158 261.61572266 359.72119141 C261.64019729 362.23344035 261.65137815 364.74546538 261.66015625 367.2578125 C261.67047882 368.02585205 261.68080139 368.7938916 261.69143677 369.58520508 C261.69234411 374.03095011 261.14718465 377.86418045 259.96133423 382.14260864 C259.10542186 385.57357091 258.84448299 389.05101987 258.53515625 392.56640625 C258.38072527 394.18874669 258.22601057 395.81106015 258.07104492 397.43334961 C257.99292572 398.27203583 257.91480652 399.11072205 257.83432007 399.974823 C255.4999286 424.75795366 252.1863563 448.38637386 244.46484375 472.1328125 C244.07941406 473.3379248 243.69398438 474.54303711 243.296875 475.78466797 C231.95846803 511.10556311 216.82309401 544.92176758 197.66015625 576.7109375 C195.74482274 579.89690436 193.96272763 583.05976809 192.39453125 586.4296875 C190.65497656 589.93999965 189.22275562 592.35740223 186.46484375 595.1328125 C183.7796223 595.95769424 181.56440381 596.45177421 178.8203125 596.80078125 C177.6970607 596.97009155 177.6970607 596.97009155 176.55111694 597.14282227 C174.19147647 597.4933135 171.82885225 597.81329559 169.46484375 598.1328125 C168.01457535 598.34657289 166.56461343 598.56242466 165.11499023 598.78051758 C160.61280661 599.44724217 156.10354715 600.04969032 151.58984375 600.6328125 C150.77056396 600.73920044 149.95128418 600.84558838 149.10717773 600.9552002 C135.42222174 602.70986647 121.72879441 603.94629311 107.96484375 604.8828125 C107.10215881 604.94170654 106.23947388 605.00060059 105.35064697 605.0612793 C99.39089423 605.46075212 93.42919918 605.80988124 87.46484375 606.1328125 C86.60063812 606.18087036 85.7364325 606.22892822 84.84603882 606.27844238 C67.49626324 607.21974116 50.14820097 607.37172815 32.77734375 607.3828125 C32.03439434 607.3838435 31.29144493 607.3848745 30.5259819 607.38593674 C-9.17088986 607.43721877 -48.8102141 605.87628213 -88.46639252 604.21889877 C-91.64955305 604.08643975 -94.83283525 603.95699258 -98.01611328 603.82739258 C-100.16960131 603.73921591 -102.3230848 603.65092852 -104.4765625 603.5625 C-105.4048436 603.52447769 -106.33312469 603.48645538 -107.28953552 603.44728088 C-122.94680459 602.79425223 -132.7294257 600.22348728 -145.53515625 591.1328125 C-146.94292162 590.16248096 -148.35178689 589.19374334 -149.76171875 588.2265625 C-176.50462502 569.73813068 -202.12451897 549.35815551 -226.07421875 527.375 C-228.28302572 525.36253143 -230.52208923 523.39623234 -232.78515625 521.4453125 C-235.89538353 518.74598923 -238.79474966 515.89775055 -241.67700195 512.95849609 C-243.39503476 511.27048541 -245.16146122 509.71445958 -247 508.16015625 C-252.2348784 503.60688382 -257.11487442 498.7031198 -262.00805664 493.7902832 C-263.59475571 492.19822284 -265.18673367 490.6115826 -266.77929688 489.02539062 C-271.6954659 484.112386 -276.51608141 479.16102165 -281.03442383 473.87426758 C-282.9288461 471.67597344 -284.91416943 469.57491863 -286.90966797 467.46875 C-302.39171568 451.06671643 -312.20409414 436.51155846 -311.87109375 413.34375 C-310.39907608 369.82798805 -298.09220968 325.73778534 -288.11987305 283.60705566 C-287.6059699 281.43246215 -287.09583833 279.25704513 -286.58789062 277.08105469 C-277.48434241 238.28777226 -265.54703257 200.11222347 -253.49279785 162.15222168 C-252.49463267 159.00504312 -251.50036819 155.85665183 -250.50683594 152.70800781 C-243.10195963 129.25577342 -235.57694741 105.85398522 -227.47265625 82.6328125 C-227.17690704 81.78386414 -226.88115784 80.93491577 -226.57644653 80.0602417 C-224.6007432 74.40374085 -222.58261198 68.76371042 -220.53515625 63.1328125 C-220.20291046 62.21353973 -219.87066467 61.29426697 -219.52835083 60.34713745 C-218.49017984 57.4887121 -217.43677262 54.63634457 -216.37890625 51.78515625 C-215.90256996 50.47019165 -215.90256996 50.47019165 -215.41661072 49.12866211 C-212.73950193 42.00161613 -209.47506683 37.04505689 -203.53515625 32.1328125 C-202.87257813 31.55789062 -202.21 30.98296875 -201.52734375 30.390625 C-191.57056068 22.78106836 -177.95903379 20.86380408 -165.93066406 18.7199707 C-159.05500926 17.47972629 -152.31067535 15.89360935 -145.53515625 14.1953125 C-118.98211481 7.64329014 -91.84759797 4.02174845 -64.59765625 2.0078125 C-63.57663818 1.93216064 -62.55562012 1.85650879 -61.50366211 1.77856445 C-41.02491833 0.38860447 -20.52009578 -0.02095407 0 0 Z " fill="#FDFEFD" transform="translate(339.53515625,27.8671875)"/>
<path d="M0 0 C2.2765454 -0.00118924 4.55309065 -0.00271407 6.82963562 -0.00454712 C14.06221775 -0.00824512 21.29476745 -0.00075828 28.52734375 0.0078125 C31.01428219 0.01008617 33.50122067 0.01232396 35.98815918 0.01452637 C51.74407032 0.03017521 67.49986204 0.06662702 83.2556839 0.12165833 C86.28908648 0.13220162 89.32249073 0.14199983 92.355896 0.1517334 C101.95444668 0.1843597 111.55229297 0.23938162 121.15036011 0.34234619 C123.83188468 0.37085057 126.51290501 0.38948153 129.1946106 0.40325928 C132.82166861 0.42415184 136.4475168 0.46985811 140.07421875 0.5234375 C141.08675217 0.52467621 142.09928558 0.52591492 143.14250183 0.52719116 C152.0662378 0.71300244 160.70692836 2.99956034 167.71484375 8.7578125 C168.4625 9.34820312 169.21015625 9.93859375 169.98046875 10.546875 C176.40651608 17.23562238 180.89055143 25.30259232 185.08984375 33.5078125 C185.59926514 34.49692627 186.10868652 35.48604004 186.63354492 36.50512695 C201.8202587 66.28794721 214.93379118 97.15260898 226.33984375 128.5703125 C226.58694092 129.24626465 226.83403809 129.9222168 227.08862305 130.61865234 C236.10719796 155.40229077 243.13931279 180.68489773 249.44152832 206.26745605 C250.15074577 209.13426947 250.87070768 211.99834317 251.59059906 214.86249161 C252.29340147 217.66337689 252.99036224 220.46568989 253.6855011 223.26848602 C254.16851678 225.21274882 254.6556644 227.15598367 255.14294434 229.09918213 C256.70284316 235.45778202 257.93498977 241.60437985 258.46484375 248.1328125 C204.32342211 254.48089513 151.11606095 257.20063896 96.62353516 255.48925781 C92.2376803 255.35152441 87.85172974 255.23248531 83.46484375 255.1328125 C82.71560638 255.11508789 81.96636902 255.09736328 81.19442749 255.07910156 C70.61934832 254.85900674 60.62150011 255.48184272 50.15234375 257.1328125 C47.65668133 257.51067239 45.1606017 257.88578963 42.6640625 258.2578125 C41.58987061 258.42539062 40.51567871 258.59296875 39.40893555 258.765625 C36.72044792 259.10093352 34.16980101 259.20283566 31.46484375 259.1328125 C28.76829292 253.25760023 26.88291515 247.27555958 25.08984375 241.0703125 C24.63520752 239.50095947 24.63520752 239.50095947 24.17138672 237.89990234 C22.12759743 230.72668728 20.26344401 223.52621696 18.58984375 216.2578125 C18.28554443 214.95058228 18.28554443 214.95058228 17.97509766 213.61694336 C16.6833446 207.81186986 15.9309919 202.06000472 15.46484375 196.1328125 C-5.11816861 197.04962481 -25.67904141 198.11022116 -46.22265625 199.6953125 C-47.48349533 199.79122177 -47.48349533 199.79122177 -48.76980591 199.8890686 C-51.15417232 200.07168834 -53.53808254 200.25926723 -55.921875 200.44921875 C-56.97243576 200.53039948 -56.97243576 200.53039948 -58.04421997 200.61322021 C-61.60452053 200.90555871 -65.0495377 201.34538474 -68.53515625 202.1328125 C-82.43783276 269.13598955 -91.4578699 335.99199939 -97.53515625 404.1328125 C-96.45661377 404.12757568 -95.37807129 404.12233887 -94.2668457 404.11694336 C-75.57665878 404.03454982 -56.90384269 404.00054945 -38.22265625 404.6328125 C-20.72469685 405.222439 -3.22825833 405.21674964 14.27734375 405.1953125 C14.97790012 405.19445648 15.6784565 405.19360046 16.40024185 405.19271851 C25.08846601 405.18128959 33.77665801 405.16109941 42.46484375 405.1328125 C42.4876088 404.44665863 42.51037384 403.76050476 42.53382874 403.05355835 C42.99840027 389.34930518 43.5468574 375.67456222 44.7121582 362.01025391 C44.90907032 359.67814706 45.09042512 357.34510496 45.27148438 355.01171875 C45.39622836 353.50252892 45.52184167 351.99341062 45.6484375 350.484375 C45.70059921 349.7991275 45.75276093 349.11388 45.8065033 348.40786743 C46.11976017 344.89016273 46.40203817 342.03802977 48.46484375 339.1328125 C50.88365173 338.44419861 50.88365173 338.44419861 53.97631836 338.17553711 C55.14043243 338.06530716 56.30454651 337.95507721 57.50393677 337.84150696 C58.77880951 337.74041122 60.05368225 337.63931549 61.3671875 337.53515625 C62.70325615 337.41593594 64.03918241 337.29511017 65.37496948 337.17277527 C68.96816861 336.84889355 72.56299353 336.54916899 76.15875626 336.25528717 C79.16011523 336.00783732 82.1604207 335.74871573 85.16079617 335.48965454 C92.60102859 334.84747486 100.04307369 334.23010883 107.48642635 333.62528992 C112.52250335 333.21442837 117.5552934 332.77328483 122.58761597 332.31912231 C143.80205565 330.42157828 164.96767184 329.85721517 186.25933456 329.82363129 C188.25017375 329.82035718 190.24100845 329.81464492 192.23184204 329.80889893 C219.19277503 329.76924391 219.19277503 329.76924391 230.46484375 332.1328125 C231.09536652 332.26307831 231.72588928 332.39334412 232.3755188 332.52755737 C237.21331588 333.53583268 242.02727573 334.63623944 246.83984375 335.7578125 C248.26941044 336.08646345 249.69909756 336.41459099 251.12890625 336.7421875 C254.57562123 337.53306377 258.02067649 338.33090421 261.46484375 339.1328125 C261.51457292 344.2556825 261.5507182 349.37840952 261.57470703 354.50146484 C261.58471593 356.24139862 261.59832718 357.9813158 261.61572266 359.72119141 C261.64019729 362.23344035 261.65137815 364.74546538 261.66015625 367.2578125 C261.67047882 368.02585205 261.68080139 368.7938916 261.69143677 369.58520508 C261.69234411 374.03095011 261.14718465 377.86418045 259.96133423 382.14260864 C259.10542186 385.57357091 258.84448299 389.05101987 258.53515625 392.56640625 C258.38072527 394.18874669 258.22601057 395.81106015 258.07104492 397.43334961 C257.99292572 398.27203583 257.91480652 399.11072205 257.83432007 399.974823 C255.4999286 424.75795366 252.1863563 448.38637386 244.46484375 472.1328125 C244.07941406 473.3379248 243.69398438 474.54303711 243.296875 475.78466797 C231.95846803 511.10556311 216.82309401 544.92176758 197.66015625 576.7109375 C195.74482274 579.89690436 193.96272763 583.05976809 192.39453125 586.4296875 C190.65497656 589.93999965 189.22275562 592.35740223 186.46484375 595.1328125 C183.7796223 595.95769424 181.56440381 596.45177421 178.8203125 596.80078125 C177.6970607 596.97009155 177.6970607 596.97009155 176.55111694 597.14282227 C174.19147647 597.4933135 171.82885225 597.81329559 169.46484375 598.1328125 C168.01457535 598.34657289 166.56461343 598.56242466 165.11499023 598.78051758 C160.61280661 599.44724217 156.10354715 600.04969032 151.58984375 600.6328125 C150.77056396 600.73920044 149.95128418 600.84558838 149.10717773 600.9552002 C135.42222174 602.70986647 121.72879441 603.94629311 107.96484375 604.8828125 C107.10215881 604.94170654 106.23947388 605.00060059 105.35064697 605.0612793 C99.39089423 605.46075212 93.42919918 605.80988124 87.46484375 606.1328125 C86.60063812 606.18087036 85.7364325 606.22892822 84.84603882 606.27844238 C67.49626324 607.21974116 50.14820097 607.37172815 32.77734375 607.3828125 C32.03439434 607.3838435 31.29144493 607.3848745 30.5259819 607.38593674 C-9.17088986 607.43721877 -48.8102141 605.87628213 -88.46639252 604.21889877 C-91.64955305 604.08643975 -94.83283525 603.95699258 -98.01611328 603.82739258 C-100.16960131 603.73921591 -102.3230848 603.65092852 -104.4765625 603.5625 C-105.4048436 603.52447769 -106.33312469 603.48645538 -107.28953552 603.44728088 C-122.94680459 602.79425223 -132.7294257 600.22348728 -145.53515625 591.1328125 C-146.94292162 590.16248096 -148.35178689 589.19374334 -149.76171875 588.2265625 C-176.50462502 569.73813068 -202.12451897 549.35815551 -226.07421875 527.375 C-228.28302572 525.36253143 -230.52208923 523.39623234 -232.78515625 521.4453125 C-235.89538353 518.74598923 -238.79474966 515.89775055 -241.67700195 512.95849609 C-243.39503476 511.27048541 -245.16146122 509.71445958 -247 508.16015625 C-252.2348784 503.60688382 -257.11487442 498.7031198 -262.00805664 493.7902832 C-263.59475571 492.19822284 -265.18673367 490.6115826 -266.77929688 489.02539062 C-271.6954659 484.112386 -276.51608141 479.16102165 -281.03442383 473.87426758 C-282.9288461 471.67597344 -284.91416943 469.57491863 -286.90966797 467.46875 C-302.39171568 451.06671643 -312.20409414 436.51155846 -311.87109375 413.34375 C-310.39907608 369.82798805 -298.09220968 325.73778534 -288.11987305 283.60705566 C-287.6059699 281.43246215 -287.09583833 279.25704513 -286.58789062 277.08105469 C-277.48434241 238.28777226 -265.54703257 200.11222347 -253.49279785 162.15222168 C-252.49463267 159.00504312 -251.50036819 155.85665183 -250.50683594 152.70800781 C-243.10195963 129.25577342 -235.57694741 105.85398522 -227.47265625 82.6328125 C-227.17690704 81.78386414 -226.88115784 80.93491577 -226.57644653 80.0602417 C-224.6007432 74.40374085 -222.58261198 68.76371042 -220.53515625 63.1328125 C-220.20291046 62.21353973 -219.87066467 61.29426697 -219.52835083 60.34713745 C-218.49017984 57.4887121 -217.43677262 54.63634457 -216.37890625 51.78515625 C-215.90256996 50.47019165 -215.90256996 50.47019165 -215.41661072 49.12866211 C-212.73950193 42.00161613 -209.47506683 37.04505689 -203.53515625 32.1328125 C-202.87257813 31.55789062 -202.21 30.98296875 -201.52734375 30.390625 C-191.57056068 22.78106836 -177.95903379 20.86380408 -165.93066406 18.7199707 C-159.05500926 17.47972629 -152.31067535 15.89360935 -145.53515625 14.1953125 C-118.98211481 7.64329014 -91.84759797 4.02174845 -64.59765625 2.0078125 C-63.57663818 1.93216064 -62.55562012 1.85650879 -61.50366211 1.77856445 C-41.02491833 0.38860447 -20.52009578 -0.02095407 0 0 Z M-66.53515625 41.1328125 C-68.07653165 41.25984527 -68.07653165 41.25984527 -69.64904594 41.38944435 C-86.37383068 42.77098352 -102.66119557 45.52736383 -119.12524414 48.72216797 C-123.73161983 49.61422212 -128.33204099 50.43455747 -132.97265625 51.1328125 C-137.07808682 51.78922075 -140.93262473 52.79909267 -144.91015625 54.0078125 C-152.19694301 56.19711615 -159.56971571 57.5010788 -167.07177734 58.73779297 C-167.98008301 58.89135254 -168.88838867 59.04491211 -169.82421875 59.203125 C-170.63584473 59.33477051 -171.4474707 59.46641602 -172.28369141 59.60205078 C-174.63847752 60.15716952 -176.46939632 60.87626336 -178.53515625 62.1328125 C-179.56190278 64.2569778 -179.56190278 64.2569778 -180.09765625 66.7578125 C-181.08021387 70.62701457 -182.30584479 74.28667582 -183.73022461 78.00927734 C-185.06374022 81.52729942 -186.29321928 85.08164897 -187.53515625 88.6328125 C-188.03434484 90.06017987 -188.53434236 91.48726459 -189.03515625 92.9140625 C-189.25171875 93.53345703 -189.46828125 94.15285156 -189.69140625 94.79101562 C-190.42578763 96.82926395 -191.18301143 98.85626819 -191.94824219 100.88305664 C-193.502205 105.01720781 -194.97746943 109.17546337 -196.42578125 113.34765625 C-196.6913533 114.11265442 -196.95692535 114.87765259 -197.23054504 115.66583252 C-198.08474763 118.133082 -198.93564447 120.60144413 -199.78515625 123.0703125 C-200.07550751 123.91340973 -200.36585876 124.75650696 -200.66500854 125.62515259 C-204.592525 137.06368986 -208.28378085 148.50146156 -211.35449219 160.20483398 C-212.80782116 165.72916938 -214.54945183 171.0341797 -216.54711914 176.38549805 C-218.15096209 180.8451088 -219.44012507 185.3848315 -220.72265625 189.9453125 C-220.98240234 190.84701172 -221.24214844 191.74871094 -221.50976562 192.67773438 C-222.77812087 197.14483565 -223.90254259 201.52159247 -224.53515625 206.1328125 C-225.19515625 206.1328125 -225.85515625 206.1328125 -226.53515625 206.1328125 C-227.79019287 210.18256189 -229.03476697 214.23534847 -230.27050781 218.29101562 C-230.69062684 219.66490105 -231.11339679 221.0379792 -231.5390625 222.41015625 C-233.89167643 230.00066534 -235.89906124 237.45137261 -237.06494141 245.33203125 C-237.84797883 249.99610465 -239.18640897 254.48082905 -240.53515625 259.0078125 C-240.79554688 259.905 -241.0559375 260.8021875 -241.32421875 261.7265625 C-242.37888101 265.33798175 -243.46036894 268.91678835 -244.69140625 272.47265625 C-245.71602903 275.70306418 -245.95919725 278.72080599 -246.19140625 282.08203125 C-246.53515625 284.1328125 -246.53515625 284.1328125 -248.53515625 287.1328125 C-248.99116886 289.64177936 -248.99116886 289.64177936 -249.16015625 292.3203125 C-249.23492187 293.22136719 -249.3096875 294.12242187 -249.38671875 295.05078125 C-249.43570313 295.73785156 -249.4846875 296.42492187 -249.53515625 297.1328125 C-250.19515625 297.1328125 -250.85515625 297.1328125 -251.53515625 297.1328125 C-251.7053125 298.35355469 -251.87546875 299.57429688 -252.05078125 300.83203125 C-253.29738052 309.42253593 -254.73962506 317.6013202 -257.51269531 325.85473633 C-261.0613545 337.23196815 -262.78301275 349.33644212 -265.01464844 361.03466797 C-265.53051509 363.7335313 -266.05227474 366.43121261 -266.57421875 369.12890625 C-268.28379832 378.03350923 -269.87910991 386.94419251 -271.234375 395.91015625 C-271.35526489 396.70656525 -271.47615479 397.50297424 -271.60070801 398.32351685 C-274.28566448 413.47357834 -274.28566448 413.47357834 -269.40942383 427.42602539 C-267.25243854 430.12978417 -264.92265781 432.63346402 -262.53515625 435.1328125 C-261.07664335 436.79932203 -259.61830016 438.46598011 -258.16015625 440.1328125 C-256.6196642 441.80056492 -255.07780926 443.46705874 -253.53515625 445.1328125 C-252.69098145 446.05980957 -251.84680664 446.98680664 -250.97705078 447.94189453 C-243.74393054 455.87147155 -236.28086326 463.54309795 -228.67919922 471.11914062 C-226.76932631 473.02359755 -224.86493476 474.93342069 -222.9609375 476.84375 C-217.53041064 482.27723195 -212.11880533 487.67175548 -206.26220703 492.65087891 C-203.19077922 495.28638454 -200.28586661 498.10088992 -197.34765625 500.8828125 C-187.24480718 510.35816323 -176.74321078 519.07476186 -165.69848633 527.43115234 C-161.6736589 530.47900922 -157.72394456 533.58341195 -153.84765625 536.8203125 C-144.56350062 544.49409422 -134.56095796 551.2044727 -124.50878906 557.82202148 C-119.6412837 561.02882517 -119.6412837 561.02882517 -117.9128418 562.72241211 C-114.21808839 564.91407352 -110.53919945 564.70685386 -106.3125 564.828125 C-105.39125336 564.86558334 -104.47000671 564.90304169 -103.52084351 564.94163513 C-100.50512534 565.06066212 -97.48911171 565.15940686 -94.47265625 565.2578125 C-92.39147795 565.33604277 -90.31034161 565.41539669 -88.22924805 565.49584961 C-74.02871387 566.03208086 -59.82221029 566.47405434 -45.61499023 566.79150391 C-44.30602783 566.8229248 -42.99706543 566.8543457 -41.6484375 566.88671875 C-40.53251221 566.91064697 -39.41658691 566.9345752 -38.2668457 566.95922852 C-35.40811889 567.0922056 -32.63989389 567.33126838 -29.79980469 567.63769531 C-21.28263715 568.43813456 -12.73416552 568.2973264 -4.1875 568.30078125 C-2.2892708 568.3040068 -0.39104183 568.30737176 1.50718689 568.31086731 C5.48876518 568.31683781 9.47032186 568.31870995 13.4519043 568.31811523 C17.46106564 568.31803483 21.47011063 568.32483999 25.47924805 568.33862305 C55.84716168 568.44149916 85.9254897 567.62635605 116.1640625 564.62890625 C121.12769842 564.14618678 126.09676849 563.78878014 131.07104492 563.43530273 C136.2078038 563.05816972 141.33695296 562.61504267 146.46484375 562.1328125 C147.31530273 562.05514648 148.16576172 561.97748047 149.04199219 561.89746094 C157.53375457 561.26488527 157.53375457 561.26488527 164.54296875 557.0078125 C166.25608353 554.07104431 167.46484375 551.56312316 167.46484375 548.1328125 C168.12484375 548.1328125 168.78484375 548.1328125 169.46484375 548.1328125 C170.11479672 546.71803115 170.75963097 545.30089763 171.40234375 543.8828125 C171.76199219 543.09390625 172.12164062 542.305 172.4921875 541.4921875 C173.36517654 539.37457552 173.97822883 537.36611888 174.46484375 535.1328125 C175.12484375 535.1328125 175.78484375 535.1328125 176.46484375 535.1328125 C179.64518709 528.86475718 182.76997346 522.62500001 185.46484375 516.1328125 C186.14674426 514.54705956 186.83453775 512.96383133 187.52734375 511.3828125 C187.84832031 510.64546875 188.16929687 509.908125 188.5 509.1484375 C189.46484375 507.1328125 189.46484375 507.1328125 191.46484375 504.1328125 C191.90253312 502.51672866 192.33868492 500.9002068 192.765625 499.28125 C193.62039765 496.65485359 194.77471912 494.24974501 195.96484375 491.7578125 C197.8937179 487.64138136 199.08897796 483.8834813 199.91040039 479.43188477 C200.46595453 477.12820649 201.24754349 475.24653445 202.26953125 473.11328125 C210.41105351 455.22652015 215.29678061 435.62172452 216.25390625 416.0234375 C216.46484375 413.1328125 216.46484375 413.1328125 216.96044922 411.20239258 C217.46518083 409.13142943 217.65026691 407.25519159 217.74609375 405.12890625 C217.78347656 404.38833984 217.82085938 403.64777344 217.859375 402.88476562 C217.92986514 401.33789871 218.00017675 399.79102365 218.0703125 398.24414062 C218.23425358 395.00206436 218.43284656 392.22880407 219.46484375 389.1328125 C219.60976498 387.72616324 219.71113306 386.3146992 219.78125 384.90234375 C219.82314453 384.09990234 219.86503906 383.29746094 219.90820312 382.47070312 C219.96717773 381.22063477 219.96717773 381.22063477 220.02734375 379.9453125 C220.07052734 379.10033203 220.11371094 378.25535156 220.15820312 377.38476562 C220.26415893 375.30096817 220.36499395 373.21691147 220.46484375 371.1328125 C216.34298356 369.58926436 212.93737284 368.8836396 208.54223633 368.88989258 C207.39696976 368.88681595 206.25170319 368.88373932 205.07173157 368.88056946 C203.8466539 368.88775497 202.62157623 368.89494049 201.359375 368.90234375 C200.08438644 368.90280197 198.80939789 368.90326019 197.49577332 368.9037323 C194.80002413 368.90675002 192.10461929 368.91353823 189.40893555 368.92700195 C185.98437015 368.94390514 182.55995246 368.94781825 179.13535023 368.94705677 C175.83501094 368.94739733 172.53470163 368.95626034 169.234375 368.96484375 C168.01941849 368.96595657 166.80446198 368.9670694 165.5526886 368.96821594 C153.34203496 368.80494695 153.34203496 368.80494695 141.46484375 371.1328125 C138.16646033 371.59489905 134.84511531 371.84642415 131.52734375 372.1328125 C130.0278418 372.26417603 130.0278418 372.26417603 128.49804688 372.39819336 C118.96613128 373.18204877 109.43057222 373.53643176 99.87133789 373.79101562 C98.74719482 373.82259766 97.62305176 373.85417969 96.46484375 373.88671875 C95.47484375 373.91064697 94.48484375 373.9345752 93.46484375 373.95922852 C90.09208702 374.1543807 86.80201168 374.61529075 83.46484375 375.1328125 C83.38967529 376.60536499 83.38967529 376.60536499 83.31298828 378.10766602 C83.12152541 381.82626535 82.92196101 385.54439677 82.72021484 389.26245117 C82.63474596 390.85739025 82.55133901 392.45244145 82.47021484 394.04760742 C81.59949423 411.11265647 79.96278337 427.84079172 74.46484375 444.1328125 C61.89885172 444.15647292 49.33286538 444.17399042 36.76685524 444.18462467 C30.92561659 444.18974053 25.08439366 444.19661875 19.24316406 444.20825195 C-6.07560664 444.2572351 -31.38438812 444.17517933 -56.69921875 443.69140625 C-57.78561016 443.67187456 -58.87200157 443.65234287 -59.99131393 443.63221931 C-63.03683203 443.57596977 -66.08211823 443.51290699 -69.12744141 443.44702148 C-70.02693134 443.43050222 -70.92642128 443.41398296 -71.85316849 443.39696312 C-72.67978359 443.37722246 -73.5063987 443.3574818 -74.35806274 443.33714294 C-75.07266474 443.32178718 -75.78726673 443.30643141 -76.52352333 443.29061031 C-78.62245678 443.12596442 -80.50129088 442.66189486 -82.53515625 442.1328125 C-84.39846771 442.04686233 -86.2645948 442.01508601 -88.12988281 442.01928711 C-89.2507428 442.01936264 -90.37160278 442.01943817 -91.52642822 442.01951599 C-92.73071472 442.02467728 -93.93500122 442.02983856 -95.17578125 442.03515625 C-96.41309998 442.0365712 -97.6504187 442.03798615 -98.92523193 442.03944397 C-102.20660566 442.0440914 -105.48792998 442.05306903 -108.76928711 442.06414795 C-112.12092636 442.0743973 -115.47256773 442.07886391 -118.82421875 442.08398438 C-125.39455056 442.09501225 -131.96484936 442.11174954 -138.53515625 442.1328125 C-138.39627119 438.86164518 -138.24785133 435.5909785 -138.09765625 432.3203125 C-138.05833984 431.39154297 -138.01902344 430.46277344 -137.97851562 429.50585938 C-137.91567383 428.1668457 -137.91567383 428.1668457 -137.8515625 426.80078125 C-137.81490479 425.97860107 -137.77824707 425.1564209 -137.74047852 424.30932617 C-137.53515625 422.1328125 -137.53515625 422.1328125 -136.53515625 419.1328125 C-136.38645671 417.70984737 -136.28325675 416.28184965 -136.2097168 414.85302734 C-136.16245453 413.9828598 -136.11519226 413.11269226 -136.0664978 412.21615601 C-135.99490952 410.79431503 -135.99490952 410.79431503 -135.921875 409.34375 C-135.81012856 407.28903651 -135.69788327 405.2343501 -135.58520508 403.1796875 C-135.49742294 401.55063477 -135.49742294 401.55063477 -135.40786743 399.88867188 C-133.53133733 365.63434482 -130.17726316 331.80994021 -125.53515625 297.8203125 C-125.28398544 295.96974243 -125.28398544 295.96974243 -125.02774048 294.08178711 C-123.10275674 279.99058133 -120.861637 266.0547917 -117.94274902 252.13607788 C-117.03614755 247.68024975 -116.35693781 243.18758782 -115.66015625 238.6953125 C-113.61596205 226.03064745 -111.0010877 213.50062499 -108.34375 200.95263672 C-107.21288087 195.61037272 -106.09038677 190.26639576 -104.97607422 184.9206543 C-104.44163695 182.35769015 -103.90430986 179.79532651 -103.36376953 177.23364258 C-103.12384277 176.08404053 -102.88391602 174.93443848 -102.63671875 173.75 C-102.42354004 172.73534668 -102.21036133 171.72069336 -101.99072266 170.67529297 C-101.44696979 168.07114623 -101.44696979 168.07114623 -101.53515625 165.1328125 C-100.39820313 165.17148438 -99.26125 165.21015625 -98.08984375 165.25 C-91.35247919 165.24737335 -84.69726 164.33441018 -78.01837158 163.53753662 C-61.88039685 161.62330057 -45.75801227 160.12430423 -29.53515625 159.1328125 C-28.1171663 159.04199704 -26.69919852 158.95083506 -25.28125 158.859375 C-7.19801144 157.7036461 10.84204768 156.94395854 28.96484375 156.9453125 C29.75928894 156.94440613 30.55373413 156.94349976 31.37225342 156.94256592 C45.29567255 156.94438165 45.29567255 156.94438165 51.46484375 158.1328125 C51.41263672 159.53853516 51.41263672 159.53853516 51.359375 160.97265625 C51.13354144 170.15655446 51.71951219 179.13209162 52.77734375 188.2578125 C52.89505127 189.32378662 53.01275879 190.38976074 53.1340332 191.48803711 C53.84884642 197.27651499 54.97768882 201.8738691 57.46484375 207.1328125 C57.94140625 209.53125 57.94140625 209.53125 58.08984375 211.5078125 C58.05960714 214.93777343 58.05960714 214.93777343 59.46484375 216.1328125 C62.22173249 216.29673667 64.95490764 216.39391615 67.71484375 216.44921875 C69.04609283 216.48059433 69.04609283 216.48059433 70.40423584 216.51260376 C73.42433596 216.5804014 76.44451158 216.63882957 79.46484375 216.6953125 C81.03933289 216.72608383 81.03933289 216.72608383 82.64562988 216.75747681 C103.04105528 217.14443085 123.43760533 217.27168167 143.83624268 217.31403732 C146.18007436 217.32022077 148.52386212 217.3301067 150.86767578 217.34109497 C170.83378996 217.42901474 190.56117127 216.84248545 210.46484375 215.1328125 C210.00598337 209.77752085 209.53910123 204.5834257 208.08203125 199.390625 C207.80576904 198.39828857 207.52950684 197.40595215 207.24487305 196.38354492 C206.94621338 195.35205322 206.64755371 194.32056152 206.33984375 193.2578125 C205.86961792 191.61099487 205.86961792 191.61099487 205.38989258 189.9309082 C202.74531438 180.81283661 199.73756063 171.86576384 196.48632812 162.94873047 C195.31311519 159.71454356 194.16152609 156.47304947 193.01171875 153.23046875 C190.87710439 147.21290838 188.72664692 141.20123852 186.56494141 135.19335938 C185.91612979 133.38832111 185.26917348 131.58261094 184.62646484 129.77539062 C180.82898261 119.10391895 176.35489601 108.73612612 171.85253906 98.34790039 C169.23160205 92.2923928 166.6859058 86.23710417 164.33984375 80.0703125 C160.43323958 70.09972574 155.29051925 60.47676522 149.76171875 51.30859375 C148.61122423 49.37839662 147.72258377 47.5310657 146.90234375 45.4453125 C145.70273707 42.12592813 145.70273707 42.12592813 143.46484375 40.1328125 C141.13284296 39.76248976 141.13284296 39.76248976 138.38145447 39.72465515 C137.30710176 39.68677037 136.23274904 39.64888559 135.12584019 39.60985279 C133.94212298 39.57964385 132.75840578 39.54943491 131.53881836 39.51831055 C130.29347037 39.48078265 129.04812239 39.44325476 127.76503658 39.40458965 C112.74113726 38.9935882 97.71421519 38.96806949 82.68567777 38.96555543 C80.24166667 38.96483203 77.79766081 38.96267441 75.35365105 38.96005821 C66.76139863 38.95088652 58.16916145 38.94671345 49.5769043 38.94750977 C41.67092639 38.94811035 33.76501673 38.93754083 25.85905606 38.9217661 C18.97826186 38.90854458 12.0974896 38.9033318 5.21668285 38.90396518 C1.14781858 38.90421565 -2.92098458 38.90162161 -6.98983574 38.89078712 C-26.94038909 38.84132122 -46.64309972 39.44420159 -66.53515625 41.1328125 Z " fill="#09B404" transform="translate(339.53515625,27.8671875)"/>
<path d="M0 0 C0.33 0 0.66 0 1 0 C1.042721 1.66611905 1.04063832 3.33382885 1 5 C-0.87988655 6.87988655 -3.60385901 6.12666396 -6.10551453 6.13552856 C-6.98649307 6.13350433 -7.86747162 6.1314801 -8.77514648 6.12939453 C-10.16182022 6.13202301 -10.16182022 6.13202301 -11.57650757 6.13470459 C-14.67472147 6.13914721 -17.77287911 6.13616521 -20.87109375 6.1328125 C-23.05916861 6.13348762 -25.24724339 6.13445937 -27.43531799 6.13571167 C-32.06862081 6.13719402 -36.70190448 6.13502704 -41.33520508 6.13037109 C-47.11079217 6.12483513 -52.88633153 6.12793351 -58.66191673 6.13382339 C-90.11931889 6.16077743 -121.55188947 5.75845026 -153 5 C-153 4.67 -153 4.34 -153 4 C-102.51 3.67 -52.02 3.34 0 3 C0 2.01 0 1.02 0 0 Z " fill="#6AE264" transform="translate(414,467)"/>
<path d="M0 0 C0 0.33 0 0.66 0 1 C-19.31185593 3.04431774 -38.59988171 3.5908762 -58 4 C-57.99129883 5.07854248 -57.98259766 6.15708496 -57.97363281 7.26831055 C-57.92339365 16.1469352 -58.0548052 24.95507355 -58.75 33.8125 C-58.83507812 34.90618896 -58.92015625 35.99987793 -59.0078125 37.12670898 C-59.62995375 44.35332104 -60.59566547 51.44638002 -62 58.5625 C-62.1659668 59.40723877 -62.33193359 60.25197754 -62.50292969 61.12231445 C-62.92665123 63.09919604 -63.4530447 65.05360829 -64 67 C-64.99 67.495 -64.99 67.495 -66 68 C-65.91068457 66.20753162 -65.80253913 64.41600143 -65.6875 62.625 C-65.60048828 61.12839844 -65.60048828 61.12839844 -65.51171875 59.6015625 C-65.08563726 56.60272941 -64.46068907 54.23458059 -63.51147461 51.39208984 C-61.94486851 46.25347672 -61.46485745 41.47281476 -61.3046875 36.125 C-61.26691193 35.23385498 -61.22913635 34.34270996 -61.19021606 33.42456055 C-61.07305746 30.61669932 -60.97308069 27.80858651 -60.875 25 C-60.76683015 22.16306533 -60.65500118 19.32634511 -60.5383606 16.48974609 C-60.46708348 14.73377893 -60.40120206 12.97758266 -60.34127808 11.22119141 C-60.11084007 5.22168015 -60.11084007 5.22168015 -59 3 C-56.66035692 2.51821616 -54.43130475 2.18930957 -52.0625 1.9375 C-51.32394775 1.85516113 -50.58539551 1.77282227 -49.82446289 1.68798828 C-33.3167717 -0.00073532 -16.58352861 -0.22545583 0 0 Z " fill="#65DE5F" transform="translate(481,399)"/>
<path d="M0 0 C1.2846817 -0.00315216 2.5693634 -0.00630432 3.89297485 -0.009552 C5.27679479 -0.00776227 6.6606144 -0.00571133 8.04443359 -0.00341797 C9.47976701 -0.00409254 10.91510032 -0.00506385 12.35043335 -0.00631714 C15.34772843 -0.00778594 18.34499357 -0.00566529 21.34228516 -0.00097656 C25.17656641 0.00473058 29.01077781 0.00143032 32.84505653 -0.00454903 C35.80478438 -0.00816794 38.76449574 -0.00701011 41.72422409 -0.00442123 C43.1379637 -0.00375619 44.55170482 -0.00456559 45.96544266 -0.00690079 C47.94180522 -0.00945028 49.91817306 -0.00487321 51.89453125 0 C53.57828354 0.00119339 53.57828354 0.00119339 55.29605103 0.00241089 C58.0854808 0.11962897 60.60483938 0.4934408 63.31787109 1.12939453 C61.8761533 27.57111232 61.8761533 27.57111232 60.31787109 29.12939453 C60.08359332 31.14534035 59.90450985 33.16786853 59.75537109 35.19189453 C59.67158203 36.29662109 59.58779297 37.40134766 59.50146484 38.53955078 C59.44087891 39.39419922 59.38029297 40.24884766 59.31787109 41.12939453 C58.98787109 41.12939453 58.65787109 41.12939453 58.31787109 41.12939453 C58.290911 38.35849623 58.27105158 35.58786003 58.25537109 32.81689453 C58.24699219 32.03121094 58.23861328 31.24552734 58.22998047 30.43603516 C58.22675781 29.67871094 58.22353516 28.92138672 58.22021484 28.14111328 C58.21497803 27.4446167 58.20974121 26.74812012 58.2043457 26.03051758 C58.31787109 24.12939453 58.31787109 24.12939453 59.31787109 21.12939453 C59.52746647 19.72353829 59.70266364 18.3123446 59.85302734 16.89892578 C59.94003906 16.09648437 60.02705078 15.29404297 60.11669922 14.46728516 C60.20371094 13.63390625 60.29072266 12.80052734 60.38037109 11.94189453 C60.47125 11.09691406 60.56212891 10.25193359 60.65576172 9.38134766 C60.87943229 7.29767968 61.0990426 5.21357659 61.31787109 3.12939453 C56.9220024 2.28352354 52.77639503 2.00767562 48.30273438 2.01586914 C47.29192558 2.0156501 47.29192558 2.0156501 46.26069641 2.01542664 C44.05315836 2.01611832 41.84570674 2.02387556 39.63818359 2.03173828 C38.09976243 2.03360511 36.56134067 2.03502776 35.0229187 2.036026 C30.98863054 2.03983034 26.95437882 2.04964269 22.92010498 2.06072998 C18.79749036 2.07098903 14.67486982 2.07553323 10.55224609 2.08056641 C2.47410444 2.09126696 -5.60400769 2.10831818 -13.68212891 2.12939453 C-13.68212891 1.79939453 -13.68212891 1.46939453 -13.68212891 1.12939453 C-9.07730124 0.39451322 -4.66135914 0.00329915 0 0 Z " fill="#42D93B" transform="translate(498.68212890625,395.87060546875)"/>
<path d="M0 0 C0.66 0 1.32 0 2 0 C0.42265263 5.52517159 -2.15175097 10.26539856 -4.9375 15.25 C-5.38029297 16.0646875 -5.82308594 16.879375 -6.27929688 17.71875 C-6.71177734 18.49734375 -7.14425781 19.2759375 -7.58984375 20.078125 C-7.98034912 20.78356445 -8.37085449 21.48900391 -8.77319336 22.21582031 C-10.6420686 24.93377857 -12.53685844 25.89857971 -15.71362305 26.59423828 C-19.36951777 27.12196015 -23.02530403 27.64312332 -26.6875 28.125 C-27.35162903 28.21471069 -28.01575806 28.30442139 -28.70001221 28.39685059 C-41.48605782 30.09919508 -54.10400556 30.4739834 -67 30 C-67 29.67 -67 29.34 -67 29 C-65.72491577 28.93268677 -65.72491577 28.93268677 -64.42407227 28.86401367 C-43.24024711 27.82640729 -43.24024711 27.82640729 -22.3125 24.5859375 C-18.81219448 23.96677968 -15.5472765 23.90045908 -12 24 C-11.9175 23.484375 -11.835 22.96875 -11.75 22.4375 C-10.67859775 18.95544268 -8.86476395 16.12799115 -7 13 C-6.34 13 -5.68 13 -5 13 C-4.731875 11.96875 -4.46375 10.9375 -4.1875 9.875 C-3.19001103 6.3514958 -1.7338102 3.23119173 0 0 Z " fill="#5EF655" transform="translate(514,563)"/>
<path d="M0 0 C1.32 0 2.64 0 4 0 C4.21637427 19.37751787 4.21637427 19.37751787 3 26 C2.67 26.33 2.34 26.66 2 27 C1.76572222 29.01594582 1.58663876 31.038474 1.4375 33.0625 C1.31181641 34.71958984 1.31181641 34.71958984 1.18359375 36.41015625 C1.12300781 37.26480469 1.06242188 38.11945313 1 39 C0.67 39 0.34 39 0 39 C-0.02696009 36.2291017 -0.04681952 33.4584655 -0.0625 30.6875 C-0.07087891 29.90181641 -0.07925781 29.11613281 -0.08789062 28.30664062 C-0.09111328 27.54931641 -0.09433594 26.79199219 -0.09765625 26.01171875 C-0.10289307 25.31522217 -0.10812988 24.61872559 -0.11352539 23.90112305 C0 22 0 22 1 19 C1.20959538 17.59414375 1.38479255 16.18295007 1.53515625 14.76953125 C1.62216797 13.96708984 1.70917969 13.16464844 1.79882812 12.33789062 C1.88583984 11.50451172 1.97285156 10.67113281 2.0625 9.8125 C2.15337891 8.96751953 2.24425781 8.12253906 2.33789062 7.25195312 C2.5615612 5.16828515 2.78117151 3.08418205 3 1 C2.01 0.67 1.02 0.34 0 0 Z " fill="#74E76E" transform="translate(557,398)"/>
<path d="M0 0 C0.33 0 0.66 0 1 0 C1.22384626 6.39454157 0.41357019 12.18199438 -0.875 18.4375 C-1.13603516 19.80165039 -1.13603516 19.80165039 -1.40234375 21.19335938 C-1.57636719 22.05638672 -1.75039063 22.91941406 -1.9296875 23.80859375 C-2.08679199 24.59032959 -2.24389648 25.37206543 -2.40576172 26.17749023 C-2.60186035 26.77891846 -2.79795898 27.38034668 -3 28 C-3.66 28.33 -4.32 28.66 -5 29 C-4.65544033 22.08504381 -3.8783965 15.84958504 -1.69921875 9.26953125 C-0.74996487 6.18843346 -0.34780737 3.19982779 0 0 Z " fill="#6DE467" transform="translate(420,438)"/>
<path d="M0 0 C0.33 0 0.66 0 1 0 C1.25 7.625 1.25 7.625 -1 11 C-1.43738696 12.71444889 -1.80848688 14.44667784 -2.125 16.1875 C-2.29257813 17.08855469 -2.46015625 17.98960937 -2.6328125 18.91796875 C-2.75398438 19.60503906 -2.87515625 20.29210937 -3 21 C-5.20018532 14.35263158 -2.38915031 6.31418295 0 0 Z " fill="#7FCD7D" transform="translate(93,304)"/>
<path d="M0 0 C1.60080151 4.00200378 0.29279692 7.04556236 -1 11 C-1.33 11 -1.66 11 -2 11 C-2.25 3.375 -2.25 3.375 0 0 Z " fill="#68C267" transform="translate(98,286)"/>
<path d="M0 0 C1.60080151 4.00200378 0.29279692 7.04556236 -1 11 C-1.33 11 -1.66 11 -2 11 C-2.25 3.375 -2.25 3.375 0 0 Z " fill="#6DC26C" transform="translate(103,268)"/>
</svg>
