<?xml version="1.0" encoding="UTF-8"?>
<svg version="1.1" xmlns="http://www.w3.org/2000/svg" width="1024" height="277">
<path d="M0 0 C0.97546168 4.29203139 1.00492943 7.53144877 0.125 11.84375 C-1.61260609 21.72177732 -1.99362853 31.75381928 -2.625 41.75 C-2.7598663 43.81514018 -2.89527846 45.88024479 -3.03125 47.9453125 C-3.36046323 52.96315358 -3.68227961 57.98141865 -4 63 C-0.04 63 3.92 63 8 63 C7.83701416 61.76773682 7.67402832 60.53547363 7.50610352 59.26586914 C6.86008435 53.4220699 6.87455742 47.61952843 6.90234375 41.74609375 C6.90446617 40.03390404 6.90446617 40.03390404 6.90663147 38.28712463 C6.91219249 34.67055551 6.92473769 31.05405016 6.9375 27.4375 C6.94252004 24.97330819 6.94708206 22.5091154 6.95117188 20.04492188 C6.96214913 14.02992646 6.97884806 8.01496779 7 2 C30.68100953 0.73842673 30.68100953 0.73842673 41.8125 1.3125 C43.36142944 1.38525146 43.36142944 1.38525146 44.94165039 1.45947266 C51.28663992 1.78561468 57.61787028 2.21740669 63.9375 2.875 C64.63528564 2.94114502 65.33307129 3.00729004 66.05200195 3.07543945 C67.96484375 3.3046875 67.96484375 3.3046875 71 4 C73.46058827 7.6908824 73.23778976 9.61107542 73.1875 14 C73.18105469 15.2375 73.17460937 16.475 73.16796875 17.75 C73 21 73 21 72 24 C72.67877197 23.87012695 73.35754395 23.74025391 74.05688477 23.60644531 C80.33619026 22.43087501 86.59385567 21.49044912 92.9375 20.75 C101.17657192 19.76459155 109.39431139 18.67451412 117.609375 17.5078125 C119.53131391 17.23718058 121.4532705 16.96667422 123.37524414 16.69628906 C126.244 16.29255223 129.11216309 15.88596726 131.97897339 15.46862793 C142.10504267 13.99588429 152.20790508 12.75125269 162.42578125 12.1328125 C163.71381905 12.03998489 163.71381905 12.03998489 165.02787781 11.94528198 C170.53076356 11.67574035 174.16430608 12.28632598 179 15 C184.30020066 20.2920877 186.5706664 28.98339568 189.1875 35.8125 C190.05293024 38.04936313 190.92128655 40.28509702 191.79296875 42.51953125 C192.1696167 43.50026611 192.54626465 44.48100098 192.93432617 45.49145508 C193.98298639 48.17512478 193.98298639 48.17512478 196 51 C196.24234375 50.45730469 196.4846875 49.91460937 196.734375 49.35546875 C197.23710938 48.28232422 197.23710938 48.28232422 197.75 47.1875 C198.23726563 46.12595703 198.23726563 46.12595703 198.734375 45.04296875 C201.42860437 40.69395036 204.9385481 39.51536298 209.75 38.3125 C210.73484375 38.06113281 211.7196875 37.80976562 212.734375 37.55078125 C213.48203125 37.36902344 214.2296875 37.18726563 215 37 C214.0925 36.54625 213.185 36.0925 212.25 35.625 C206.99027689 32.1433866 205.67741837 25.76612501 204.25 19.9375 C203.20110193 7.61294766 203.20110193 7.61294766 207 3 C214.75979387 -3.69878646 227.78715307 -2.57745861 237.5 -3.125 C238.21399963 -3.16702545 238.92799927 -3.2090509 239.66363525 -3.25234985 C249.73392032 -3.83824157 259.78536313 -4.18037857 269.875 -4.1875 C270.94169922 -4.18830566 272.00839844 -4.18911133 273.10742188 -4.18994141 C291.42566672 -4.05893044 291.42566672 -4.05893044 298 -1 C300.85077262 2.10559028 301.92105861 5.64859866 302.1640625 9.80859375 C301.77984637 16.84340812 300.41549 23.78009809 297 30 C292.55154525 33.53854355 288.44920092 33.28185522 283 33 C283 33.66 283 34.32 283 35 C284.09699219 34.97679687 285.19398438 34.95359375 286.32421875 34.9296875 C287.778639 34.91092079 289.23306664 34.89272156 290.6875 34.875 C291.40873047 34.85824219 292.12996094 34.84148437 292.87304688 34.82421875 C297.34808355 34.78335084 299.70740683 35.28296273 304 37 C304 30.4 304 23.8 304 17 C318.17370323 13.45657419 332.41761354 11.80173507 347 11 C348.11552246 10.92193115 349.23104492 10.8438623 350.38037109 10.76342773 C358.16351937 10.42484824 358.16351937 10.42484824 361.86328125 12.96875 C362.56839844 13.9690625 363.27351562 14.969375 364 16 C364.46970215 16.62390625 364.9394043 17.2478125 365.42333984 17.890625 C367.05340924 20.06609548 368.6227685 22.27713606 370.1875 24.5 C374.2019558 30.13589816 378.25229219 35.72476347 382.5 41.1875 C385.76973711 45.39449075 388.95144198 49.63040017 392 54 C392.76262188 48.50688402 393.17693242 43.13921835 393.28125 37.59765625 C393.31898822 36.03320259 393.35674927 34.46874948 393.39453125 32.90429688 C393.44845524 30.4660914 393.50073192 28.02785715 393.55224609 25.58959961 C393.60376405 23.217174 393.66101851 20.84493748 393.71875 18.47265625 C393.73232544 17.7373317 393.74590088 17.00200714 393.7598877 16.24440002 C393.88700794 11.11299206 393.88700794 11.11299206 395 10 C410.17616115 8.79929677 425.67993142 10.0846474 440.8125 11.375 C441.95812408 11.46968567 441.95812408 11.46968567 443.12689209 11.56628418 C445.321253 11.75071801 447.51417087 11.94701141 449.70703125 12.1484375 C450.9700708 12.26364746 452.23311035 12.37885742 453.53442383 12.49755859 C457 13 457 13 463 15 C463.33 23.91 463.66 32.82 464 42 C466.97 40.515 466.97 40.515 470 39 C472.65094209 38.17102647 475.28456012 37.60863308 478 37 C477.0925 36.54625 476.185 36.0925 475.25 35.625 C470.74552597 32.67526169 469.59927252 27.91263711 468 23 C467.67 22.01 467.34 21.02 467 20 C465.83642124 7.54970725 465.83642124 7.54970725 469.125 3.3125 C474.82347493 -1.27105593 481.21319285 -1.49784806 488.25 -2.0625 C489.2287207 -2.14483887 490.20744141 -2.22717773 491.21582031 -2.31201172 C494.14313612 -2.55238481 497.07117073 -2.77890811 500 -3 C500.77988281 -3.06074707 501.55976562 -3.12149414 502.36328125 -3.18408203 C512.03026425 -3.91346025 521.68190993 -4.09614334 531.375 -4.125 C532.97939941 -4.13200928 532.97939941 -4.13200928 534.61621094 -4.13916016 C539.91124581 -4.1285144 545.19081195 -4.00126022 550.4765625 -3.6796875 C551.41838379 -3.62280762 552.36020508 -3.56592773 553.33056641 -3.50732422 C557.38344954 -2.73707626 560.10553184 -1.01784308 562.8125 2.0625 C566.05415879 10.08134015 563.86142747 20.12039748 561 28 C558.68938684 30.78964272 557.45866024 31.84711325 554 33 C552.60560336 33.06665376 551.20830125 33.08538199 549.8125 33.0625 C548.554375 33.041875 547.29625 33.02125 546 33 C546 33.66 546 34.32 546 35 C547.00160156 34.96519531 548.00320313 34.93039063 549.03515625 34.89453125 C563.24411489 34.5321671 563.24411489 34.5321671 568 38 C572.74909766 44.07111628 576.1618586 50.86057598 579 58 C580.92568068 54.54223577 581.91408493 51.03238486 582.953125 47.22265625 C583.32838225 45.89098117 583.70471829 44.5596097 584.08203125 43.22851562 C584.66904258 41.14651344 585.24968539 39.06366865 585.81201172 36.97485352 C586.36051441 34.94730973 586.93569572 32.92890318 587.515625 30.91015625 C588.01497559 29.10236694 588.01497559 29.10236694 588.52441406 27.25805664 C590.41901132 23.07483355 592.25624464 21.61862065 596 19 C599.27734375 17.9609375 599.27734375 17.9609375 602.9375 17.375 C603.6186084 17.26365723 604.2997168 17.15231445 605.00146484 17.03759766 C607.33128848 16.66777619 609.66462814 16.33289799 612 16 C612.86931152 15.86851563 613.73862305 15.73703125 614.63427734 15.6015625 C634.3218527 12.63986942 653.80649082 11.92830641 673.6875 11.875 C674.36900116 11.87223053 675.05050232 11.86946106 675.75265503 11.86660767 C700.39277686 11.7932928 700.39277686 11.7932928 706 17 C709.72022056 22.10977162 712.26160214 27.5092999 714.375 33.4375 C714.66463623 34.23808838 714.95427246 35.03867676 715.25268555 35.86352539 C717.70213195 42.81120187 719.80335419 49.85141767 721.8125 56.9375 C722.10237793 57.95448975 722.39225586 58.97147949 722.69091797 60.01928711 C726.63896044 74.35158861 726.63896044 74.35158861 727 81 C724.48685843 83.51314157 723.03513062 83.52076885 719.5546875 84.0703125 C718.47832031 84.24433594 717.40195312 84.41835937 716.29296875 84.59765625 C714.60107422 84.85869141 714.60107422 84.85869141 712.875 85.125 C711.73933594 85.30675781 710.60367188 85.48851562 709.43359375 85.67578125 C706.62346575 86.12445715 703.81235351 86.56553028 701 87 C701.63502441 87.34256836 702.27004883 87.68513672 702.92431641 88.03808594 C705.82618028 89.60571694 708.72560046 91.17781614 711.625 92.75 C712.62402344 93.28882813 713.62304688 93.82765625 714.65234375 94.3828125 C716.59054644 95.43534641 718.52207108 96.5002896 720.44604492 97.57861328 C721.94990104 98.4155744 723.46883938 99.22780792 725.0168457 99.97998047 C727.31425907 101.20430734 728.78475721 102.29652357 729.56054688 104.83203125 C729.85837653 107.11886314 729.93537213 109.31909858 729.9375 111.625 C729.95562744 112.43461182 729.97375488 113.24422363 729.99243164 114.07836914 C730.02926088 116.3870295 730.02119576 118.69125206 730 121 C730.0103125 121.99644531 730.020625 122.99289063 730.03125 124.01953125 C729.42555525 139.64140828 714.66560257 152.43837576 704.375 162.875 C703.61195557 163.65218384 703.61195557 163.65218384 702.83349609 164.44506836 C699.24621915 168 699.24621915 168 697 168 C697 168.66 697 169.32 697 170 C692.02811095 174.27208142 687.59271342 174.78411931 681.1875 175.1875 C680.20773193 175.26081543 679.22796387 175.33413086 678.21850586 175.40966797 C661.00218642 176.596818 643.68796279 176.99862419 626.43359375 177.0703125 C625.17474365 177.07562988 623.91589355 177.08094727 622.61889648 177.08642578 C611.33483337 176.81694198 601.42406007 174.89755631 593 167 C593 166.34 593 165.68 593 165 C592.41347656 164.75121094 591.82695313 164.50242188 591.22265625 164.24609375 C588.68943667 162.82588804 587.29014647 161.28816254 585.4375 159.0625 C583.3730902 156.60267986 581.30641457 154.23631078 579 152 C578.39865234 152.74443359 578.39865234 152.74443359 577.78515625 153.50390625 C574.65068143 157.2496392 571.39826073 160.75496144 567.6875 163.9375 C567.03136719 164.50339844 566.37523437 165.06929687 565.69921875 165.65234375 C561.59623604 167.70086623 557.53328722 167.75328233 553 168 C552.09757568 168.05422119 551.19515137 168.10844238 550.26538086 168.16430664 C547.38580767 168.32135594 544.50656173 168.44775694 541.625 168.5625 C540.57916748 168.6042334 539.53333496 168.6459668 538.45581055 168.68896484 C524.89053856 169.19332658 511.37599533 169.17880776 497.8125 168.625 C496.96341064 168.59422363 496.11432129 168.56344727 495.23950195 168.53173828 C482.17168417 167.9091537 472.38174761 164.22579728 463.375 154.41796875 C462.03500136 152.87967412 462.03500136 152.87967412 460 152 C459.94392578 153.89685547 459.94392578 153.89685547 459.88671875 155.83203125 C459.82106167 157.4922173 459.75461424 159.15237222 459.6875 160.8125 C459.66494141 161.64587891 459.64238281 162.47925781 459.61914062 163.33789062 C459.58369141 164.14033203 459.54824219 164.94277344 459.51171875 165.76953125 C459.48553467 166.50792236 459.45935059 167.24631348 459.43237305 168.00708008 C458.88006776 170.55279893 458.07790365 171.4545945 456 173 C453.10266574 173.39209792 450.40809918 173.60681621 447.5 173.6875 C446.23881348 173.73656494 446.23881348 173.73656494 444.95214844 173.78662109 C404.60365115 175.20565086 404.60365115 175.20565086 399 171 C397.33314247 168.62838341 395.83946196 166.30313513 394.375 163.8125 C393.49163638 162.35292215 392.60616619 160.89461746 391.71875 159.4375 C391.26886719 158.69628906 390.81898438 157.95507812 390.35546875 157.19140625 C388.28211182 153.83937962 386.08392154 150.57614727 383.875 147.3125 C379.38785915 140.65586889 375.14896091 133.87244083 371 127 C371.45496895 137.66823742 372.55679667 148.16705393 373.98364258 158.74804688 C375.28701655 168.56964197 375.28701655 168.56964197 375 173 C372.84903758 175.15096242 368.14358454 174.17138234 365.27661133 174.19018555 C347.06158934 174.17678946 329.82398589 172.68772122 312 169 C311.34 165.7 310.68 162.4 310 159 C309.39414062 159.56589844 308.78828125 160.13179687 308.1640625 160.71484375 C307.32617188 161.44832031 306.48828125 162.18179688 305.625 162.9375 C304.81289063 163.66839844 304.00078125 164.39929688 303.1640625 165.15234375 C298.79699721 167.70249422 294.98094797 167.78968145 290 168 C289.09878418 168.05293213 288.19756836 168.10586426 287.26904297 168.16040039 C284.38827105 168.32133878 281.50796818 168.44770094 278.625 168.5625 C277.57916748 168.6042334 276.53333496 168.6459668 275.45581055 168.68896484 C261.89053856 169.19332658 248.37599533 169.17880776 234.8125 168.625 C233.96341064 168.59422363 233.11432129 168.56344727 232.23950195 168.53173828 C212.10420074 167.57244055 200.22910915 155.18289411 186.3125 141.8125 C185.72452637 141.26730713 185.13655273 140.72211426 184.53076172 140.16040039 C180.30250671 135.99962412 178.0684591 131.86830613 177 126 C177.14453125 122.49609375 177.14453125 122.49609375 177.8125 119.4375 C178.02519531 118.40496094 178.23789062 117.37242187 178.45703125 116.30859375 C178.63621094 115.54675781 178.81539063 114.78492188 179 114 C175.99978513 114.14214728 172.99988211 114.28861696 170 114.4375 C169.16082031 114.47681641 168.32164062 114.51613281 167.45703125 114.55664062 C162.25986542 114.81851332 157.15542847 115.2899352 152 116 C152.57540527 116.50321777 153.15081055 117.00643555 153.74365234 117.52490234 C160.99540946 123.95001943 167.81982915 130.73415254 174.625 137.625 C183.7185462 146.88307727 183.7185462 146.88307727 193.34326172 155.58032227 C196.06701288 157.91433538 198.55617602 160.37288923 201 163 C201 163.66 201 164.32 201 165 C202.32 165.66 203.64 166.32 205 167 C205 169.97 205 172.94 205 176 C203.23044256 176.46323493 201.45925488 176.92024208 199.6875 177.375 C198.70136719 177.63023437 197.71523438 177.88546875 196.69921875 178.1484375 C187.29306743 180.31373949 178.2792386 181.37159383 168.625 181.625 C167.40997803 181.65932129 166.19495605 181.69364258 164.94311523 181.72900391 C162.47668264 181.79471502 160.01012225 181.85580328 157.54345703 181.91210938 C154.25533839 181.99366668 150.97033563 182.11052523 147.68359375 182.234375 C145.80994973 182.28335709 143.93625257 182.33036287 142.0625 182.375 C141.21187988 182.41318848 140.36125977 182.45137695 139.48486328 182.49072266 C135.45760197 182.54591319 133.58113204 182.41838219 130.23828125 180.01171875 C127.48991754 176.31365867 125.27864355 172.50383785 123.125 168.4375 C122.24978877 166.82102348 121.37348374 165.20513872 120.49609375 163.58984375 C119.85969971 162.41204346 119.85969971 162.41204346 119.21044922 161.21044922 C117.5986937 158.26715869 115.90184811 155.38475645 114.1875 152.5 C111.20990148 147.44796081 108.53747725 142.28543648 106 137 C105.67 137 105.34 137 105 137 C105.27263672 138.11858398 105.27263672 138.11858398 105.55078125 139.25976562 C106.37658728 142.67097976 107.18838846 146.08538207 108 149.5 C108.28617187 150.67304688 108.57234375 151.84609375 108.8671875 153.0546875 C112.41897067 168.10748286 112.41897067 168.10748286 109.375 174.3125 C106.67339727 177.36957677 104.78734978 178.50627278 101 180 C98.22950091 180.10600669 95.79443064 180.06624649 93.0625 179.8125 C92.32467285 179.75570068 91.5868457 179.69890137 90.82666016 179.64038086 C72.07027227 178.1024132 72.07027227 178.1024132 65.5078125 175.74609375 C61.64384584 174.92424783 60.35069759 175.51154152 56.91992188 177.24414062 C53.1785638 178.71708628 49.21335669 178.35046151 45.25 178.25 C43.92101685 178.22921387 43.92101685 178.22921387 42.56518555 178.20800781 C40.0424 178.15897228 37.52181454 178.08450059 35 178 C33.86691406 177.9690625 32.73382813 177.938125 31.56640625 177.90625 C25.35669752 177.5539261 20.48650502 175.89398067 15 173 C14.34 172.67 13.68 172.34 13 172 C11.99338459 168.34218151 11.79398275 164.70181774 11.61108398 160.92456055 C11.55109726 159.72369308 11.49111053 158.52282562 11.42930603 157.28556824 C11.36884598 155.99894791 11.30838593 154.71232758 11.24609375 153.38671875 C11.18058955 152.04863404 11.11475316 150.71056556 11.04859924 149.37251282 C10.87596828 145.86281554 10.70783319 142.35291695 10.54064941 138.84295654 C10.36901944 135.25649936 10.19311632 131.67025202 10.01757812 128.08398438 C9.67421484 121.05618763 9.33599851 114.02815327 9 107 C3.72 107 -1.56 107 -7 107 C-6.97643433 109.80153564 -6.97643433 109.80153564 -6.95239258 112.65966797 C-6.90406729 118.82233593 -6.86956863 124.98495913 -6.84456348 131.14776421 C-6.82889028 134.88523796 -6.80762239 138.62250723 -6.77368164 142.35986328 C-6.74114633 145.9649164 -6.72315946 149.56977252 -6.71536827 153.17496109 C-6.70981419 154.55213651 -6.69896865 155.92930085 -6.68280983 157.30639267 C-6.66111565 159.23133631 -6.65977529 161.15647712 -6.65942383 163.08154297 C-6.64943108 164.72701614 -6.64943108 164.72701614 -6.63923645 166.4057312 C-6.75828842 167.2618399 -6.87734039 168.11794861 -7 169 C-10.32301589 171.21534393 -10.99898196 171.17149359 -14.80078125 170.96875 C-21.7928924 170.83988437 -28.35046414 172.14938427 -35.1875 173.5 C-49.79804326 176.35875252 -49.79804326 176.35875252 -57 176 C-57.66 173.36 -58.32 170.72 -59 168 C-59.43699219 168.83144531 -59.43699219 168.83144531 -59.8828125 169.6796875 C-60.29273438 170.40414062 -60.70265625 171.12859375 -61.125 171.875 C-61.51945313 172.59429687 -61.91390625 173.31359375 -62.3203125 174.0546875 C-66.11027569 178.4439937 -72.66327496 178.53167544 -78.140625 179.11328125 C-78.92278381 179.19757889 -79.70494263 179.28187653 -80.51080322 179.36872864 C-89.58667633 180.26560812 -98.63900704 180.26566244 -107.75 180.1875 C-109.51505495 180.17725956 -111.28011029 180.16708766 -113.04516602 180.15698242 C-117.28296493 180.12798406 -121.52033489 180.08135282 -125.75787354 180.0267334 C-127.78171252 180.00260269 -129.80565498 179.98756785 -131.82958984 179.97363281 C-134.86699819 179.94786571 -137.90103082 179.88973971 -140.9375 179.8125 C-142.16581543 179.80416138 -142.16581543 179.80416138 -143.41894531 179.7956543 C-161.93009234 179.081113 -179.25400361 157.7630539 -191.5625 145.625 C-192.45666626 144.75053223 -192.45666626 144.75053223 -193.36889648 143.85839844 C-199.26706092 137.97126178 -201.7997487 133.41889842 -202 125 C-200.85635467 96.56325879 -190.71077506 68.68032683 -181.40136719 42.05957031 C-180.46699161 39.38377845 -179.58102866 36.69897237 -178.73144531 33.99511719 C-174.83092977 22.03208348 -174.83092977 22.03208348 -169 19 C-164.63539638 17.61303262 -160.23704532 16.65225992 -155.75 15.75 C-153.98462891 15.36714844 -153.98462891 15.36714844 -152.18359375 14.9765625 C-140.97798913 12.60830346 -130.20684689 11.83820875 -118.765625 11.796875 C-117.52882996 11.79117493 -116.29203491 11.78547485 -115.01776123 11.77960205 C-112.41923872 11.77020599 -109.82070458 11.7636397 -107.22216797 11.75976562 C-103.24816458 11.74999549 -99.27466501 11.71889471 -95.30078125 11.6875 C-92.76823222 11.68097498 -90.23567952 11.67572255 -87.703125 11.671875 C-85.92642426 11.6533548 -85.92642426 11.6533548 -84.11383057 11.63446045 C-78.26646352 11.650292 -73.92771624 11.69522351 -69 15 C-68.85304687 13.67935547 -68.85304687 13.67935547 -68.703125 12.33203125 C-68.55359375 11.17058594 -68.4040625 10.00914063 -68.25 8.8125 C-68.11078125 7.66394531 -67.9715625 6.51539063 -67.828125 5.33203125 C-66.90361129 1.61217183 -65.63136931 -0.25313166 -63 -3 C-48.54500993 -10.22749503 -15.54892219 -2.6999205 0 0 Z M248 34 C248 34.33 248 34.66 248 35 C252.29 35 256.58 35 261 35 C261 34.67 261 34.34 261 34 C256.71 34 252.42 34 248 34 Z M511 34 C511 34.33 511 34.66 511 35 C515.29 35 519.58 35 524 35 C524 34.67 524 34.34 524 34 C519.71 34 515.42 34 511 34 Z M234 35 C238 36 238 36 238 36 Z M497 35 C501 36 501 36 501 36 Z M99 64 C99.33 66.97 99.66 69.94 100 73 C103.64616671 72.86183041 107.29183074 72.71318466 110.9375 72.5625 C112.49887695 72.50352539 112.49887695 72.50352539 114.09179688 72.44335938 C115.57583008 72.38051758 115.57583008 72.38051758 117.08984375 72.31640625 C118.00628662 72.27974854 118.92272949 72.24309082 119.86694336 72.20532227 C121.9820728 72.22996136 121.9820728 72.22996136 123 71 C123.04080783 69.00041636 123.04254356 66.99954746 123 65 C117.63510405 64.09516363 112.49682543 63.87696338 107.0625 63.9375 C106.28326172 63.94201172 105.50402344 63.94652344 104.70117188 63.95117188 C102.80074732 63.96283092 100.90036294 63.98076123 99 64 Z M-125.8125 68.5 C-126.85180664 68.57154297 -126.85180664 68.57154297 -127.91210938 68.64453125 C-129.60817838 68.76150153 -131.30410449 68.88054069 -133 69 C-135.33217749 76.85225167 -136.91722274 84.65306122 -138.125 92.75 C-138.29386719 93.81476563 -138.46273437 94.87953125 -138.63671875 95.9765625 C-139.91501003 104.37101076 -140.43016808 112.45252114 -141 121 C-129.12 121 -117.24 121 -105 121 C-104.67 115.39 -104.34 109.78 -104 104 C-102.66195312 104.0309375 -101.32390625 104.061875 -99.9453125 104.09375 C-92.87220079 104.09375 -85.89811012 103.2733782 -78.875 102.5 C-77.52348913 102.35498671 -76.17192681 102.21045214 -74.8203125 102.06640625 C-71.54633986 101.71562347 -68.27296473 101.36004527 -65 101 C-64.97298592 98.89590361 -64.95359777 96.79170822 -64.9375 94.6875 C-64.92589844 93.51574219 -64.91429687 92.34398437 -64.90234375 91.13671875 C-64.85100102 87.96940805 -64.85100102 87.96940805 -66 85 C-80.19 85 -94.38 85 -109 85 C-110.32 79.39 -111.64 73.78 -113 68 C-117.29914169 68 -121.52962042 68.19671475 -125.8125 68.5 Z M240 84 C239.34114432 87.01847836 238.69796788 90.03908017 238.0625 93.0625 C237.88009766 93.89072266 237.69769531 94.71894531 237.50976562 95.57226562 C235.8573687 103.53381444 235.55713065 110.64304031 235 119 C246.22 119 257.44 119 269 119 C269.7066736 100.84884864 269.7066736 100.84884864 265 84 C263.14630389 83.91262355 261.28932459 83.89301847 259.43359375 83.90234375 C258.30888672 83.90556641 257.18417969 83.90878906 256.02539062 83.91210938 C254.84138672 83.92048828 253.65738281 83.92886719 252.4375 83.9375 C251.24962891 83.94201172 250.06175781 83.94652344 248.83789062 83.95117188 C245.89187774 83.96300325 242.94596319 83.97948713 240 84 Z M503 84 C500.51054916 91.17125826 500.51054916 91.17125826 499.05078125 98.296875 C498.86225586 99.64072266 498.86225586 99.64072266 498.66992188 101.01171875 C498.55197266 101.91535156 498.43402344 102.81898438 498.3125 103.75 C498.18294922 104.66910156 498.05339844 105.58820313 497.91992188 106.53515625 C497.33933858 110.7804796 497 114.68924465 497 119 C508.22 119 519.44 119 531 119 C531.11199015 106.20583193 531.11199015 106.20583193 530.0625 93.625 C529.93198242 92.5421875 529.93198242 92.5421875 529.79882812 91.4375 C529.33807715 87.59665346 529.33807715 87.59665346 528 84 C519.75 84 511.5 84 503 84 Z M588 92 C588.66 94.97 589.32 97.94 590 101 C594.62 101 599.24 101 604 101 C601.00210168 98.00210168 598.64641455 96.65276855 594.875 94.8125 C593.79992187 94.28269531 592.72484375 93.75289063 591.6171875 93.20703125 C589.32900634 91.93019995 589.32900634 91.93019995 588 92 Z M636 116 C636 116.66 636 117.32 636 118 C636.99 117.67 637.98 117.34 639 117 C638.01 116.67 637.02 116.34 636 116 Z " fill="#06A620" transform="translate(248,50)"/>
<path d="M0 0 C9.97084965 -0.10048258 19.81098887 0.01552594 29.75 0.9375 C30.77609375 1.02451172 31.8021875 1.11152344 32.859375 1.20117188 C37.31530617 1.59280645 41.61652573 2.09956642 46 3 C46.04731208 13.13100666 46.08235167 23.26198515 46.10362434 33.39308167 C46.11385789 38.10242743 46.12761793 42.81169523 46.15087891 47.52099609 C46.4611186 112.10494898 46.4611186 112.10494898 43 138 C39.03917272 141.96082728 26.44699396 140.11573843 20.875 140.125 C18.59128813 140.10222456 16.30830019 140.06790533 14.02490234 140.02392578 C12.28351158 140.00334991 10.54160725 140.04095608 8.80078125 140.08984375 C6.22524534 140.06289494 4.3763892 139.99297398 2 139 C-1.55837784 134.97748592 -3 131.34602916 -3 126 C-3.58652344 125.7834375 -4.17304687 125.566875 -4.77734375 125.34375 C-7.73517338 123.55553665 -8.8189409 121.46444053 -10.5625 118.5 C-13.11897813 114.14934191 -13.11897813 114.14934191 -17 111 C-17 109.68 -17 108.36 -17 107 C-18.485 106.505 -18.485 106.505 -20 106 C-20.69115073 104.40090903 -21.3726573 102.79705672 -22.00878906 101.17529297 C-24.068351 96.6554169 -27.07928298 92.6514541 -29.875 88.5625 C-32.25856814 85.04736425 -34.6346218 81.52740296 -37 78 C-37.7719873 76.86087158 -37.7719873 76.86087158 -38.55957031 75.69873047 C-39.01686523 75.00279785 -39.47416016 74.30686523 -39.9453125 73.58984375 C-40.34508301 72.98906006 -40.74485352 72.38827637 -41.15673828 71.76928711 C-42 70 -42 70 -42 66 C-42.598125 65.773125 -43.19625 65.54625 -43.8125 65.3125 C-46.56559434 63.66064339 -47.44224619 61.76147267 -49 59 C-49.99 58.505 -49.99 58.505 -51 58 C-50.40113422 64.93796762 -49.79647373 71.87541229 -49.1875 78.8125 C-49.09762817 79.83742554 -49.00775635 80.86235107 -48.91516113 81.91833496 C-47.740456 95.26468367 -46.49885513 108.5909071 -44.86401367 121.88989258 C-44.17434392 127.64455109 -43.88071615 133.20280477 -44 139 C-73.6134883 139.49751273 -73.6134883 139.49751273 -81 137 C-83.78096851 133.68077952 -83.38261079 129.32776799 -83.375 125.1875 C-83.37628906 124.47207031 -83.37757813 123.75664062 -83.37890625 123.01953125 C-83.26799417 117.51425882 -82.40807325 114.26009157 -79 110 C-78.34 110 -77.68 110 -77 110 C-77.94423263 88.01242019 -77.94423263 88.01242019 -82.828125 66.640625 C-84.08503715 62.73581793 -84.92938165 58.88040606 -85.640625 54.84765625 C-86.00142147 52.78026381 -86.00142147 52.78026381 -87 50 C-87.11349848 48.54293083 -87.17601475 47.08155041 -87.20532227 45.62036133 C-87.22526749 44.73967484 -87.24521271 43.85898834 -87.26576233 42.95161438 C-87.28247482 42.00465195 -87.29918732 41.05768951 -87.31640625 40.08203125 C-87.33718735 39.10965012 -87.35796844 38.13726898 -87.37937927 37.13542175 C-87.44478748 34.02785335 -87.50371929 30.92020015 -87.5625 27.8125 C-87.60569351 25.70637142 -87.64930807 23.60025144 -87.69335938 21.49414062 C-87.80045999 16.32951409 -87.90175219 11.16480222 -88 6 C-87.18015625 5.86722656 -86.3603125 5.73445313 -85.515625 5.59765625 C-84.43796875 5.42105469 -83.3603125 5.24445313 -82.25 5.0625 C-81.18265625 4.88847656 -80.1153125 4.71445313 -79.015625 4.53515625 C-76.63207294 4.11216838 -74.34118884 3.59937549 -72 3 C-54.18200702 -0.58379435 -54.18200702 -0.58379435 -48.0234375 3.22119141 C-44.36822317 6.7930374 -41.92227632 11.18277608 -39.42041016 15.6015625 C-36.98726283 19.71006015 -34.06415423 23.44567438 -31.1875 27.25 C-30.00981707 28.8475582 -28.83406013 30.44653785 -27.66015625 32.046875 C-23.21694278 38.07377241 -18.71697078 44.05782839 -14.21289062 50.03930664 C-10.20213554 55.37227115 -6.26129233 60.74390515 -2.41796875 66.19921875 C-1.11112026 68.12196235 -1.11112026 68.12196235 1 69 C0.8934182 68.04839241 0.8934182 68.04839241 0.78468323 67.07756042 C0.00242146 59.4468555 -0.13030502 51.90443572 -0.09765625 44.23828125 C-0.0962413 42.96647507 -0.09482635 41.69466888 -0.09336853 40.38432312 C-0.08875504 37.04221611 -0.07980852 33.70018063 -0.06866455 30.35809326 C-0.05834004 26.93209442 -0.05384753 23.50608812 -0.04882812 20.08007812 C-0.03785922 13.38669941 -0.02116677 6.69335382 0 0 Z " fill="#FAFDFA" transform="translate(653,72)"/>
<path d="M0 0 C2.51153448 0.00541863 5.02289431 -0.00001586 7.53442383 -0.00634766 C9.16398151 -0.00568761 10.79353908 -0.00440798 12.4230957 -0.00244141 C13.52493446 -0.00547775 13.52493446 -0.00547775 14.64903259 -0.00857544 C18.41128599 0.00816387 22.15316844 0.14921296 25.90380859 0.45117188 C26.62645401 0.50798126 27.34909943 0.56479065 28.09364319 0.62332153 C30.52275605 1.25225665 31.47657514 2.20990294 33.05200195 4.13037109 C33.8515625 5.98388672 33.8515625 5.98388672 34.4387207 8.03662109 C34.65463867 8.78041016 34.87055664 9.52419922 35.09301758 10.29052734 C35.30635742 11.06267578 35.51969727 11.83482422 35.73950195 12.63037109 C36.07691406 13.78859375 36.07691406 13.78859375 36.42114258 14.97021484 C37.33306744 18.16888137 38.05200195 20.78129654 38.05200195 24.13037109 C39.53700195 24.62537109 39.53700195 24.62537109 41.05200195 25.13037109 C44.10218246 32.55689754 45.72993089 40.13080961 45.05200195 48.13037109 C44.05200195 49.13037109 44.05200195 49.13037109 40.35839844 49.24389648 C38.71328903 49.24373733 37.06817464 49.23804098 35.4230957 49.22802734 C34.1267495 49.22590492 34.1267495 49.22590492 32.80421448 49.22373962 C30.03260903 49.21812348 27.26108315 49.20556828 24.48950195 49.19287109 C22.61515416 49.18785817 20.7408051 49.18329491 18.86645508 49.17919922 C14.26160652 49.16814881 9.65681774 49.15087339 5.05200195 49.13037109 C4.06200195 41.21037109 4.06200195 41.21037109 3.05200195 33.13037109 C-1.32231996 33.25116612 -5.6964689 33.37420448 -10.07055664 33.50268555 C-11.55424436 33.5456234 -13.03796856 33.58732121 -14.52172852 33.62768555 C-22.70213136 33.85108832 -30.81270171 34.17563711 -38.94799805 35.13037109 C-38.63862305 35.89349609 -38.32924805 36.65662109 -38.01049805 37.44287109 C-37.26906212 39.31826786 -36.58571587 41.21721761 -35.94799805 43.13037109 C-33.96673955 43.85082873 -31.96061691 44.50282846 -29.94799805 45.13037109 C-26.85879791 46.53549223 -23.84585853 48.08854106 -20.82299805 49.63037109 C-19.95787598 50.06671875 -19.09275391 50.50306641 -18.20141602 50.95263672 C-14.51817627 52.81053647 -10.83977034 54.6779232 -7.16088867 56.54443359 C-4.46657538 57.90970487 -1.76985717 59.27013744 0.92700195 60.63037109 C1.75216309 61.05125 2.57732422 61.47212891 3.42749023 61.90576172 C7.56876043 63.99391199 11.5864905 65.80938378 16.05200195 67.13037109 C16.05200195 67.79037109 16.05200195 68.45037109 16.05200195 69.13037109 C17.13868164 69.54996094 17.13868164 69.54996094 18.24731445 69.97802734 C20.88543123 71.06193326 23.39021079 72.26705646 25.92700195 73.56787109 C29.91484702 75.58567294 33.92204359 77.42451873 38.05200195 79.13037109 C38.05200195 79.79037109 38.05200195 80.45037109 38.05200195 81.13037109 C39.70200195 81.79037109 41.35200195 82.45037109 43.05200195 83.13037109 C43.05200195 83.79037109 43.05200195 84.45037109 43.05200195 85.13037109 C45.36200195 85.46037109 47.67200195 85.79037109 50.05200195 86.13037109 C50.8886429 97.45822385 50.80472766 105.13936281 43.05200195 114.13037109 C42.20637695 115.11521484 41.36075195 116.10005859 40.48950195 117.11474609 C37.76224354 120.20423383 34.92263923 123.17455461 32.05200195 126.13037109 C31.57698242 126.62585449 31.10196289 127.12133789 30.61254883 127.63183594 C24.71458917 133.77520589 24.71458917 133.77520589 22.05200195 136.13037109 C21.39200195 136.13037109 20.73200195 136.13037109 20.05200195 136.13037109 C20.05200195 136.79037109 20.05200195 137.45037109 20.05200195 138.13037109 C13.78200195 138.13037109 7.51200195 138.13037109 1.05200195 138.13037109 C1.05200195 138.79037109 1.05200195 139.45037109 1.05200195 140.13037109 C-3.53368995 140.27558081 -8.1194614 140.41784494 -12.70532227 140.55761719 C-14.25873152 140.60535032 -15.81211812 140.65382773 -17.36547852 140.703125 C-26.22899444 140.98386985 -35.07136807 141.18460367 -43.94018555 141.09912109 C-46.92591696 141.13014168 -49.84970399 141.37296954 -52.82299805 141.63037109 C-61.75936544 140.94016386 -68.01507661 132.03174463 -73.66967773 125.81030273 C-74.94799805 124.13037109 -74.94799805 124.13037109 -74.94799805 122.13037109 C-75.93799805 121.80037109 -76.92799805 121.47037109 -77.94799805 121.13037109 C-80.30073373 117.60126757 -80.35553298 116.28722742 -79.94799805 112.13037109 C-79.21709961 110.80585938 -79.21709961 110.80585938 -78.47143555 109.45458984 C-76.62400526 105.42340222 -76.39984064 102.12504656 -76.26049805 97.75537109 C-76.15737305 95.23912109 -76.05424805 92.72287109 -75.94799805 90.13037109 C-65.38799805 90.13037109 -54.82799805 90.13037109 -43.94799805 90.13037109 C-43.94799805 95.74037109 -43.94799805 101.35037109 -43.94799805 107.13037109 C-18.70299805 106.63537109 -18.70299805 106.63537109 7.05200195 106.13037109 C7.05200195 102.83037109 7.05200195 99.53037109 7.05200195 96.13037109 C2.10296834 93.8655591 -2.84504897 91.77391824 -7.94799805 89.88037109 C-14.90559903 87.21735533 -21.57396048 84.09426967 -28.26049805 80.81787109 C-29.43749268 80.24536621 -30.6144873 79.67286133 -31.82714844 79.08300781 C-35.20359911 77.43785004 -38.57613176 75.78489909 -41.94799805 74.13037109 C-43.57558757 73.33737229 -45.20318972 72.5443994 -46.83081055 71.75146484 C-53.821658 68.32301881 -60.61818195 64.66675038 -67.30737305 60.67333984 C-70.77763731 58.64559667 -74.32669646 56.87138147 -77.94799805 55.13037109 C-77.60169439 45.56260983 -75.86709583 36.97442484 -73.13549805 27.81787109 C-72.79196289 26.60808594 -72.44842773 25.39830078 -72.09448242 24.15185547 C-67.62197085 8.80434389 -67.62197085 8.80434389 -63.94799805 5.13037109 C-61.85020692 4.76991678 -59.74212296 4.46911938 -57.6315918 4.19287109 C-56.98287613 4.10787354 -56.33416046 4.02287598 -55.66578674 3.93530273 C-54.27974757 3.75501303 -52.89341825 3.57694269 -51.50683594 3.40087891 C-49.44522962 3.13798792 -47.38511624 2.8652336 -45.32495117 2.59130859 C-30.22742687 0.62227876 -15.21275444 -0.03904172 0 0 Z " fill="#F9FDFA" transform="translate(914.947998046875,73.86962890625)"/>
<path d="M0 0 C5.71838642 -0.19578754 5.71838642 -0.19578754 7.81445312 1.50927734 C12.87009513 7.72426831 14.50928204 17.21179762 16.28125 24.86669922 C17.35368717 28.88953021 18.73703527 32.75376838 20.16015625 36.66357422 C27.52865053 57.04740396 27.52865053 57.04740396 26.16015625 64.16357422 C24.10261707 67.12620577 21.72410343 69.63610596 19.16015625 72.16357422 C18.65097656 72.86740234 18.14179688 73.57123047 17.6171875 74.29638672 C13.59683141 77.35160168 9.02098369 77.34090106 4.09765625 77.85107422 C3.11087891 77.96773438 2.12410156 78.08439453 1.10742188 78.20458984 C-1.87282757 78.55004115 -4.85494623 78.86115924 -7.83984375 79.16357422 C-8.75403076 79.2629126 -9.66821777 79.36225098 -10.61010742 79.46459961 C-17.43086021 80.16097043 -24.17477884 80.28321556 -31.02734375 80.22607422 C-32.59838867 80.21930664 -32.59838867 80.21930664 -34.20117188 80.21240234 C-36.74745911 80.20077546 -39.29361835 80.18443703 -41.83984375 80.16357422 C-41.83984375 81.15357422 -41.83984375 82.14357422 -41.83984375 83.16357422 C-41.2675 83.40720703 -40.69515625 83.65083984 -40.10546875 83.90185547 C-37.43550837 85.3887472 -35.70155368 87.1444133 -33.58984375 89.35107422 C-30.94983583 92.10188539 -28.25671326 94.6836666 -25.35546875 97.15185547 C-18.58163975 103.02076551 -12.40818383 109.54100285 -6.11230469 115.91162109 C2.48516804 124.63035084 2.48516804 124.63035084 11.5925293 132.80859375 C13.14279481 134.14856783 14.55572467 135.55960808 15.97265625 137.03857422 C18.05599289 139.37007826 18.05599289 139.37007826 21.16015625 140.16357422 C21.16015625 141.81357422 21.16015625 143.46357422 21.16015625 145.16357422 C5.14957394 145.88487531 -10.81293352 146.30810547 -26.83984375 146.16357422 C-27.48742 144.72685854 -28.13283828 143.28917006 -28.77734375 141.85107422 C-29.31681641 140.6503125 -29.31681641 140.6503125 -29.8671875 139.42529297 C-30.83984375 137.16357422 -30.83984375 137.16357422 -31.83984375 134.16357422 C-32.16984375 133.50357422 -32.49984375 132.84357422 -32.83984375 132.16357422 C-33.48308594 132.06689453 -34.12632812 131.97021484 -34.7890625 131.87060547 C-35.46582031 131.63728516 -36.14257812 131.40396484 -36.83984375 131.16357422 C-37.859375 128.86279297 -37.859375 128.86279297 -38.65234375 125.85107422 C-40.42345712 119.96369737 -42.96550654 115.1523666 -46.171875 109.92919922 C-47.60924359 107.54592764 -48.84817403 105.18037915 -50.02734375 102.66357422 C-51.58513541 99.18191373 -51.58513541 99.18191373 -53.96484375 97.16357422 C-56.77232925 94.16892302 -57.04160806 91.15475266 -57.83984375 87.16357422 C-58.49984375 87.16357422 -59.15984375 87.16357422 -59.83984375 87.16357422 C-60.49984375 85.18357422 -61.15984375 83.20357422 -61.83984375 81.16357422 C-67.77984375 81.16357422 -73.71984375 81.16357422 -79.83984375 81.16357422 C-79.44023089 84.16672542 -79.02076608 87.16488787 -78.58984375 90.16357422 C-78.42548828 91.42234375 -78.42548828 91.42234375 -78.2578125 92.70654297 C-77.50777902 97.79887552 -76.25558397 101.75159676 -73.79833984 106.26464844 C-72.26978355 109.29294973 -71.55663959 112.43683853 -70.77734375 115.72607422 C-70.61524414 116.40573242 -70.45314453 117.08539063 -70.28613281 117.78564453 C-65.83984375 136.71513058 -65.83984375 136.71513058 -65.83984375 143.16357422 C-85.95253146 143.71376932 -85.95253146 143.71376932 -93.83984375 141.16357422 C-96.65671904 137.45454693 -97.21491236 134.72122928 -97.2121582 130.11889648 C-97.21830643 128.91030975 -97.22445465 127.70172302 -97.23078918 126.45651245 C-97.22166 125.1442569 -97.21253082 123.83200134 -97.203125 122.47998047 C-97.20328329 121.08610989 -97.20454471 119.69223907 -97.20683289 118.29837036 C-97.20838298 114.55057977 -97.18954086 110.80315156 -97.16564941 107.05544662 C-97.15236223 104.72930877 -97.14489615 102.40322536 -97.1394043 100.07705688 C-97.06765269 71.07635279 -96.21697026 42.13267563 -94.83984375 13.16357422 C-91.71293429 12.52600292 -88.5850692 11.89323991 -85.45703125 11.26123047 C-84.5858667 11.08354126 -83.71470215 10.90585205 -82.81713867 10.72277832 C-71.52591327 8.44729074 -60.14070018 6.86463377 -48.7265625 5.34716797 C-47.20748291 5.14426147 -47.20748291 5.14426147 -45.65771484 4.93725586 C-43.68338257 4.67534809 -41.70845467 4.4178846 -39.73291016 4.1652832 C-38.40332275 3.99041382 -38.40332275 3.99041382 -37.046875 3.81201172 C-36.25772705 3.71065918 -35.4685791 3.60930664 -34.65551758 3.50488281 C-32.82592567 3.33775679 -32.82592567 3.33775679 -31.83984375 2.16357422 C-29.80332608 1.93374837 -27.75954409 1.76779037 -25.71484375 1.62841797 C-24.45027344 1.54140625 -23.18570313 1.45439453 -21.8828125 1.36474609 C-20.88580322 1.29984985 -20.88580322 1.29984985 -19.86865234 1.23364258 C-17.87559224 1.10341013 -15.88309695 0.96462452 -13.890625 0.82568359 C-9.26208082 0.51446197 -4.63117375 0.26675433 0 0 Z M-65.83984375 40.16357422 C-65.50984375 43.13357422 -65.17984375 46.10357422 -64.83984375 49.16357422 C-61.19367704 49.02540463 -57.54801301 48.87675888 -53.90234375 48.72607422 C-52.3409668 48.66709961 -52.3409668 48.66709961 -50.74804688 48.60693359 C-49.26401367 48.5440918 -49.26401367 48.5440918 -47.75 48.47998047 C-46.83355713 48.44332275 -45.91711426 48.40666504 -44.97290039 48.36889648 C-42.85777095 48.39353558 -42.85777095 48.39353558 -41.83984375 47.16357422 C-41.79903592 45.16399058 -41.79730019 43.16312168 -41.83984375 41.16357422 C-47.2047397 40.25873785 -52.34301832 40.0405376 -57.77734375 40.10107422 C-58.55658203 40.10558594 -59.33582031 40.11009766 -60.13867188 40.11474609 C-62.03909643 40.12640514 -63.93948081 40.14433545 -65.83984375 40.16357422 Z " fill="#F7FCF8" transform="translate(412.83984375,73.83642578125)"/>
<path d="M0 0 C14.46528168 -0.51320163 28.65007027 1.3055877 43 3 C43.90774059 6.74453667 44.01485795 9.9095108 43.6953125 13.7421875 C43.60685059 14.87696533 43.51838867 16.01174316 43.42724609 17.1809082 C43.32750488 18.3999585 43.22776367 19.61900879 43.125 20.875 C41.92927948 36.58515993 41.43163481 52.24532941 41 68 C52.55 68 64.1 68 76 68 C76 47.87 76 27.74 76 7 C81.465625 6.979375 86.93125 6.95875 92.5625 6.9375 C94.27381104 6.928396 95.98512207 6.91929199 97.74829102 6.90991211 C99.12516197 6.90698781 100.50203379 6.90444047 101.87890625 6.90234375 C102.57721558 6.89722778 103.2755249 6.89211182 103.99499512 6.88684082 C108.5063201 6.88605005 112.46410231 7.35201462 117 8 C117 21.53 117 35.06 117 49 C116.34 49 115.68 49 115 49 C115.00222061 49.64463196 115.00444122 50.28926392 115.00672913 50.95343018 C115.02915292 57.76891516 115.04405814 64.58438938 115.05493164 71.39990234 C115.05990683 73.93083116 115.06668938 76.4617572 115.07543945 78.99267578 C115.11648358 91.18519679 115.152717 103.36589685 114.55859375 115.546875 C114.51960464 116.35658752 114.48061554 117.16630005 114.44044495 118.00054932 C114.24563485 121.46441545 113.85076276 124.64864301 113 128 C112.86515554 129.97679203 112.77628144 131.9569496 112.71875 133.9375 C112.66267578 135.65066406 112.66267578 135.65066406 112.60546875 137.3984375 C112.57066406 138.58695313 112.53585937 139.77546875 112.5 141 C112.43105669 143.35428638 112.35830081 145.70846502 112.28125 148.0625 C112.25095703 149.10535156 112.22066406 150.14820313 112.18945312 151.22265625 C112.02548103 153.62645331 111.68167216 155.69832154 111 158 C106.90661348 158.04939115 102.81334202 158.08571501 98.71972656 158.10986328 C97.32679219 158.11992877 95.93387898 158.13358234 94.54101562 158.15087891 C92.5404564 158.1751022 90.53974385 158.18540814 88.5390625 158.1953125 C87.33459473 158.20578613 86.13012695 158.21625977 84.88916016 158.22705078 C82 158 82 158 80 156 C79.60522461 153.09277344 79.60522461 153.09277344 79.40234375 149.359375 C79.36342514 148.68898193 79.32450653 148.01858887 79.28440857 147.32788086 C79.1595651 145.13565538 79.04826069 142.94297844 78.9375 140.75 C78.85499947 139.24117415 78.77182589 137.73238496 78.68798828 136.22363281 C78.48341648 132.4941084 78.29056754 128.76409843 78.10284424 125.03369141 C78.00949245 123.18770828 77.91288916 121.34189029 77.81591797 119.49609375 C77.66313897 116.58097922 77.51656595 113.6656787 77.375 110.75 C77.3349585 109.93885742 77.29491699 109.12771484 77.25366211 108.29199219 C76.95255824 101.50981976 77 94.81114497 77 88 C64.46 88 51.92 88 39 88 C38.93941406 92.53621094 38.87882812 97.07242188 38.81640625 101.74609375 C38.77593144 104.61264017 38.73516824 107.47917661 38.69335938 110.34570312 C38.62696483 114.89978735 38.56166309 119.45386954 38.50268555 124.00805664 C38.45509259 127.67799335 38.40275191 131.34783391 38.34705925 135.01765633 C38.32661263 136.42072227 38.30790343 137.8238146 38.29092598 139.2269268 C38.26693313 141.18576926 38.23629801 143.14452701 38.20532227 145.10327148 C38.18977798 146.22023911 38.1742337 147.33720673 38.15821838 148.48802185 C38 151 38 151 37 152 C34.02963425 152.67366068 31.00808974 153.08980018 28 153.5625 C26.76056641 153.77036133 26.76056641 153.77036133 25.49609375 153.98242188 C19.9294027 154.86664588 14.63568276 155.13066603 9 155 C8.17851449 149.23645769 7.80773609 143.63220739 7.8125 137.8125 C7.81185547 136.98967529 7.81121094 136.16685059 7.81054688 135.3190918 C7.86989932 128.39441508 8.63304911 121.79813969 10 115 C10.66 115 11.32 115 12 115 C12.06058594 114.18015625 12.12117187 113.3603125 12.18359375 112.515625 C12.26738281 111.43796875 12.35117188 110.3603125 12.4375 109.25 C12.51871094 108.18265625 12.59992188 107.1153125 12.68359375 106.015625 C12.94090773 103.56320038 13.31812218 101.36078709 14 99 C13.37351563 99.02320313 12.74703125 99.04640625 12.1015625 99.0703125 C11.28429687 99.08835937 10.46703125 99.10640625 9.625 99.125 C8.81289062 99.14820313 8.00078125 99.17140625 7.1640625 99.1953125 C5 99 5 99 3 97 C2.04163411 94.13590495 1.87159859 91.49444032 1.8671875 88.48828125 C1.86589844 87.64845703 1.86460937 86.80863281 1.86328125 85.94335938 C1.86714844 85.07517578 1.87101563 84.20699219 1.875 83.3125 C1.87113281 82.43271484 1.86726562 81.55292969 1.86328125 80.64648438 C1.86457031 79.81052734 1.86585938 78.97457031 1.8671875 78.11328125 C1.86831543 77.34798096 1.86944336 76.58268066 1.87060547 75.79418945 C2 74 2 74 3 73 C4.99958364 72.95919217 7.00045254 72.95745644 9 73 C8.79503906 72.29875 8.59007812 71.5975 8.37890625 70.875 C5.91159086 62.18627212 5.91159086 62.18627212 5.5625 57.875 C5.05925734 54.40821723 4.60311254 53.11151296 3.01171875 50.20703125 C0.03126041 43.67707558 0.32284664 36.86591803 0.25 29.8125 C0.22175128 28.47847856 0.19181195 27.14449182 0.16015625 25.81054688 C-0.01723029 17.20729962 -0.03017141 8.60471905 0 0 Z " fill="#FAFDFA" transform="translate(191,57)"/>
<path d="M0 0 C1.88041393 -0.04228422 3.76047596 -0.10422526 5.63964844 -0.18457031 C21.24032758 -0.83588557 21.24032758 -0.83588557 25.57763672 2.56567383 C27.24035964 5.21869685 28.19739025 7.63285201 29.1027832 10.62475586 C29.42996338 11.41922119 29.75714355 12.21368652 30.09423828 13.03222656 C31.05569797 15.37150667 31.8731621 17.72323818 32.6652832 20.12475586 C33.10070435 21.41071655 33.10070435 21.41071655 33.54492188 22.72265625 C37.81795356 35.53233157 41.41469466 48.19856324 43.1027832 61.62475586 C43.3090332 62.75913086 43.5152832 63.89350586 43.7277832 65.06225586 C44.76411728 74.90742956 45.4732879 82.50786902 39.44262695 90.82006836 C34.87457719 96.29562717 30.07357258 101.51374675 25.1027832 106.62475586 C24.50546387 107.32818115 23.90814453 108.03160645 23.29272461 108.75634766 C20.4957259 111.14268334 18.94500944 111.20873834 15.29418945 111.36694336 C14.04911621 111.42205078 12.80404297 111.4771582 11.52124023 111.53393555 C3.38391738 111.72862518 -4.75322856 111.77207714 -12.89257812 111.75512695 C-15.95732556 111.74976005 -19.02192688 111.75510555 -22.08666992 111.76147461 C-52.57673239 111.77908383 -52.57673239 111.77908383 -62.8972168 102.62475586 C-63.40704102 102.17680664 -63.91686523 101.72885742 -64.44213867 101.26733398 C-69.2501369 97.02429026 -73.92958145 92.66493308 -78.3972168 88.06225586 C-80.61454619 85.9003597 -82.15409012 84.88589673 -84.8972168 83.62475586 C-85.22003472 77.79012088 -85.0401014 73.25560519 -82.6784668 67.89819336 C-81.66112614 64.93773205 -81.38518437 62.04342066 -81.0222168 58.93725586 C-80.08055907 52.05836637 -80.08055907 52.05836637 -77.3972168 49.31225586 C-74.8972168 47.62475586 -74.8972168 47.62475586 -72.8972168 47.62475586 C-72.97842773 46.49682617 -73.05963867 45.36889648 -73.14331055 44.20678711 C-73.61153449 34.58080576 -72.74016045 26.24925985 -69.7097168 17.06225586 C-69.41830811 16.15258057 -69.12689941 15.24290527 -68.82666016 14.30566406 C-66.62315826 8.10665216 -66.62315826 8.10665216 -63.6081543 6.10522461 C-62.71354492 5.94666992 -61.81893555 5.78811523 -60.8972168 5.62475586 C-59.20532227 5.31151367 -59.20532227 5.31151367 -57.47924805 4.99194336 C-50.25721279 4.04896259 -43.1951194 3.31566822 -35.8972168 3.62475586 C-35.8972168 2.96475586 -35.8972168 2.30475586 -35.8972168 1.62475586 C-23.94025654 0.83776293 -11.98220595 0.21043676 0 0 Z M-33.8972168 38.62475586 C-34.55607248 41.64323422 -35.19924892 44.66383603 -35.8347168 47.68725586 C-36.01711914 48.51547852 -36.19952148 49.34370117 -36.38745117 50.19702148 C-38.0398481 58.1585703 -38.34008615 65.26779617 -38.8972168 73.62475586 C-27.6772168 73.62475586 -16.4572168 73.62475586 -4.8972168 73.62475586 C-4.19054319 55.4736045 -4.19054319 55.4736045 -8.8972168 38.62475586 C-10.75091291 38.53737941 -12.6078922 38.51777433 -14.46362305 38.52709961 C-15.58833008 38.53032227 -16.71303711 38.53354492 -17.87182617 38.53686523 C-19.05583008 38.54524414 -20.23983398 38.55362305 -21.4597168 38.56225586 C-22.64758789 38.56676758 -23.83545898 38.5712793 -25.05932617 38.57592773 C-28.00533906 38.58775911 -30.9512536 38.60424299 -33.8972168 38.62475586 Z " fill="#F9FDFA" transform="translate(521.897216796875,95.375244140625)"/>
<path d="M0 0 C2.75944394 -0.01344311 5.51816649 -0.04152184 8.27734375 -0.08203125 C12.27576047 -0.14067884 16.27339324 -0.15862201 20.2722168 -0.17333984 C21.50761703 -0.19600922 22.74301727 -0.21867859 24.01585388 -0.24203491 C25.73398033 -0.23775986 25.73398033 -0.23775986 27.48681641 -0.23339844 C28.99591835 -0.24552872 28.99591835 -0.24552872 30.5355072 -0.25790405 C34.18878279 0.5812763 35.17754315 2.267708 37.18237305 5.35009766 C38.25247589 7.73121655 39.19027167 10.02460701 40.05737305 12.47509766 C40.3085791 13.16885498 40.55978516 13.8626123 40.81860352 14.57739258 C41.62339185 16.82944943 42.40644843 19.08794211 43.18237305 21.35009766 C43.4434082 22.10726074 43.70444336 22.86442383 43.97338867 23.64453125 C47.97230759 35.38577396 50.90197589 47.16422536 53.18237305 59.35009766 C53.40924805 60.51927734 53.63612305 61.68845703 53.86987305 62.89306641 C54.38365647 65.7081714 54.81471578 68.51264862 55.18237305 71.35009766 C55.30225586 72.13384766 55.42213867 72.91759766 55.5456543 73.72509766 C56.17758725 80.86222282 52.50443347 85.00288058 48.18237305 90.35009766 C47.53397461 91.21119141 46.88557617 92.07228516 46.2175293 92.95947266 C42.45709597 97.87409839 38.55011118 102.06638129 33.7487793 105.97509766 C32.05764763 107.28524535 32.05764763 107.28524535 31.18237305 109.35009766 C20.16243291 111.27168755 8.33582816 110.50368615 -2.81298828 110.48046875 C-5.87773571 110.47510184 -8.94233704 110.48044735 -12.00708008 110.48681641 C-17.61160312 110.490508 -23.21393461 110.44656945 -28.81762695 110.35009766 C-29.52584595 110.3388385 -30.23406494 110.32757935 -30.96374512 110.315979 C-38.10195781 110.15511088 -43.36525218 109.60342899 -48.94262695 104.97509766 C-49.51319824 104.51796387 -50.08376953 104.06083008 -50.67163086 103.58984375 C-51.83543933 102.64358167 -52.98917383 101.68478376 -54.13208008 100.71337891 C-56.02479287 99.13067667 -56.02479287 99.13067667 -59.14575195 97.22509766 C-63.73420692 93.83670014 -66.34919476 91.14578176 -67.29321289 85.51171875 C-67.81688252 78.29442141 -67.44737056 71.13829931 -66.99829102 63.92578125 C-66.83426071 60.6793111 -66.82521788 57.49279184 -66.90356445 54.24462891 C-67.07558096 42.06115007 -64.85188009 31.46272779 -61.06762695 19.97509766 C-60.85156799 19.30609436 -60.63550903 18.63709106 -60.41290283 17.94781494 C-56.76819862 6.8582004 -56.76819862 6.8582004 -53.32836914 5.01953125 C-47.72738557 3.52615348 -42.57887794 3.25076574 -36.81762695 3.35009766 C-36.81762695 2.69009766 -36.81762695 2.03009766 -36.81762695 1.35009766 C-24.56693162 0.01547112 -12.30860359 0.05364002 0 0 Z M-23.81762695 37.35009766 C-26.3070778 44.52135591 -26.3070778 44.52135591 -27.7668457 51.64697266 C-27.95537109 52.99082031 -27.95537109 52.99082031 -28.14770508 54.36181641 C-28.2656543 55.26544922 -28.38360352 56.16908203 -28.50512695 57.10009766 C-28.63467773 58.01919922 -28.76422852 58.93830078 -28.89770508 59.88525391 C-29.47828837 64.13057725 -29.81762695 68.03934231 -29.81762695 72.35009766 C-18.59762695 72.35009766 -7.37762695 72.35009766 4.18237305 72.35009766 C4.29436319 59.55592958 4.29436319 59.55592958 3.24487305 46.97509766 C3.11435547 45.89228516 3.11435547 45.89228516 2.98120117 44.78759766 C2.5204502 40.94675111 2.5204502 40.94675111 1.18237305 37.35009766 C-7.06762695 37.35009766 -15.31762695 37.35009766 -23.81762695 37.35009766 Z " fill="#F9FDFA" transform="translate(774.817626953125,96.64990234375)"/>
<path d="M0 0 C1.19951797 -0.00807175 2.39903595 -0.01614349 3.63490295 -0.02445984 C6.1518513 -0.0382085 8.66881756 -0.04897128 11.18579102 -0.05688477 C13.76462245 -0.06849744 16.34342819 -0.08909201 18.92211914 -0.1184082 C22.65657804 -0.16080486 26.39033131 -0.17720505 30.125 -0.1875 C31.28120346 -0.20500809 32.43740692 -0.22251617 33.62864685 -0.24055481 C34.6972847 -0.23762924 35.76592255 -0.23470367 36.86694336 -0.23168945 C38.27731117 -0.24048882 38.27731117 -0.24048882 39.71617126 -0.24946594 C42.09765625 0.23828125 42.09765625 0.23828125 43.85597229 2.08796692 C45.37964048 4.72661382 46.26158392 7.32792554 47.16015625 10.23828125 C48.4523615 14.42820191 48.4523615 14.42820191 50.21875 18.42578125 C51.09765625 20.23828125 51.09765625 20.23828125 51.09765625 23.23828125 C51.75765625 23.23828125 52.41765625 23.23828125 53.09765625 23.23828125 C53.23042969 23.94855469 53.36320312 24.65882812 53.5 25.390625 C53.76490234 26.76927734 53.76490234 26.76927734 54.03515625 28.17578125 C54.29619141 29.55056641 54.29619141 29.55056641 54.5625 30.953125 C54.87480613 33.19117969 54.87480613 33.19117969 56.09765625 34.23828125 C56.49431852 36.41847604 56.84080862 38.60792755 57.16015625 40.80078125 C57.42505859 42.59708984 57.42505859 42.59708984 57.6953125 44.4296875 C57.82808594 45.35652344 57.96085938 46.28335938 58.09765625 47.23828125 C49.18575855 48.24853686 40.30771079 48.34863864 31.34765625 48.36328125 C30.1683252 48.36779297 28.98899414 48.37230469 27.77392578 48.37695312 C26.11659424 48.37405273 26.11659424 48.37405273 24.42578125 48.37109375 C22.9238623 48.36940186 22.9238623 48.36940186 21.39160156 48.36767578 C19.09765625 48.23828125 19.09765625 48.23828125 18.09765625 47.23828125 C17.70016325 44.89104159 17.35396902 42.53499577 17.03515625 40.17578125 C16.77025391 38.24025391 16.77025391 38.24025391 16.5 36.265625 C16.36722656 35.26660156 16.23445313 34.26757812 16.09765625 33.23828125 C2.92178871 33.00439011 -9.84098831 33.45211299 -22.90234375 35.23828125 C-26.55613934 46.91090305 -28.73740728 58.06401757 -29.71289062 70.25195312 C-29.96928777 72.94015827 -30.41204154 75.58388652 -30.90234375 78.23828125 C-31.56234375 78.23828125 -32.22234375 78.23828125 -32.90234375 78.23828125 C-32.87914062 78.78871094 -32.8559375 79.33914062 -32.83203125 79.90625 C-32.60759875 90.24617571 -33.8974621 99.68702394 -34.90234375 110.23828125 C-15.43234375 110.23828125 4.03765625 110.23828125 24.09765625 110.23828125 C24.90905391 102.95950481 24.90905391 102.95950481 25.66015625 95.67578125 C25.78583984 94.40541016 25.78583984 94.40541016 25.9140625 93.109375 C25.97464844 92.49191406 26.03523438 91.87445313 26.09765625 91.23828125 C34.92861695 89.71897618 43.51167542 89.04465775 52.47265625 89.05078125 C53.4061792 89.05013672 54.33970215 89.04949219 55.30151367 89.04882812 C61.96257408 89.10319908 61.96257408 89.10319908 63.09765625 90.23828125 C63.54130404 97.84219808 63.42542825 104.96399374 61.09765625 112.23828125 C60.43765625 112.23828125 59.77765625 112.23828125 59.09765625 112.23828125 C58.94296875 113.69234375 58.94296875 113.69234375 58.78515625 115.17578125 C58.1419827 119.66880791 56.95759188 124.09124774 55.09765625 128.23828125 C54.43765625 128.56828125 53.77765625 128.89828125 53.09765625 129.23828125 C52.19421941 131.12092006 52.19421941 131.12092006 51.47265625 133.30078125 C51.21226562 134.03425781 50.951875 134.76773438 50.68359375 135.5234375 C50.49023438 136.08933594 50.296875 136.65523437 50.09765625 137.23828125 C49.43765625 137.23828125 48.77765625 137.23828125 48.09765625 137.23828125 C48.09765625 138.55828125 48.09765625 139.87828125 48.09765625 141.23828125 C46.81890625 141.54765625 45.54015625 141.85703125 44.22265625 142.17578125 C43.50335938 142.34980469 42.7840625 142.52382812 42.04296875 142.703125 C32.00122623 144.52768564 21.9302304 144.39243378 11.76000977 144.36865234 C9.06585941 144.36334177 6.37187933 144.36859534 3.67773438 144.375 C-0.68396008 144.37890387 -5.04366713 144.34174732 -9.40481567 144.27355957 C-11.04654044 144.25036972 -12.68841197 144.23571237 -14.33029175 144.23034668 C-23.61859779 144.18075705 -30.6855086 143.7965744 -37.83984375 137.23828125 C-38.5467334 136.64378174 -39.25362305 136.04928223 -39.98193359 135.43676758 C-41.98703424 133.73655084 -43.9450424 131.99301172 -45.90234375 130.23828125 C-46.81371094 129.47902344 -47.72507812 128.71976563 -48.6640625 127.9375 C-51.18224092 125.79392663 -53.54091221 123.55403033 -55.90234375 121.23828125 C-56.51980469 120.64611816 -57.13726562 120.05395508 -57.7734375 119.44384766 C-59.88543557 117.40121814 -61.95883326 115.32487734 -64.02734375 113.23828125 C-64.7042627 112.58561279 -65.38118164 111.93294434 -66.07861328 111.26049805 C-69.30789397 107.91924565 -71.32912231 105.55275833 -71.4296875 100.7890625 C-71.30230585 99.26730669 -71.12646553 97.74882296 -70.90234375 96.23828125 C-70.75925781 95.18133057 -70.75925781 95.18133057 -70.61328125 94.10302734 C-70.2559415 91.85887209 -69.8133586 89.64828356 -69.33984375 87.42578125 C-69.16130859 86.5737915 -68.98277344 85.72180176 -68.79882812 84.84399414 C-68.1839019 81.97135914 -67.5459148 79.1046297 -66.90234375 76.23828125 C-66.67691895 75.21798828 -66.45149414 74.19769531 -66.21923828 73.14648438 C-62.87412018 58.23992958 -58.61750326 43.79693244 -53.65234375 29.36328125 C-53.39018066 28.59958221 -53.12801758 27.83588318 -52.85791016 27.04904175 C-52.10347044 24.86228263 -51.34108782 22.67852212 -50.57421875 20.49609375 C-50.34941833 19.85036911 -50.12461792 19.20464447 -49.89300537 18.53935242 C-46.08047502 7.83846133 -46.08047502 7.83846133 -41.58984375 5.55078125 C-27.90133805 1.29045443 -14.244456 0.09213635 0 0 Z " fill="#FAFDFA" transform="translate(128.90234375,73.76171875)"/>
<path d="M0 0 C1.06669922 -0.00080566 2.13339844 -0.00161133 3.23242188 -0.00244141 C21.55066672 0.12856956 21.55066672 0.12856956 28.125 3.1875 C30.97577262 6.29309028 32.04605861 9.83609866 32.2890625 13.99609375 C31.90484637 21.03090812 30.54049 27.96759809 27.125 34.1875 C22.67654525 37.72604355 18.57420092 37.46935522 13.125 37.1875 C12.795 38.1775 12.465 39.1675 12.125 40.1875 C0.905 39.5275 -10.315 38.8675 -21.875 38.1875 C-21.875 38.8475 -21.875 39.5075 -21.875 40.1875 C-22.87402344 40.17589844 -23.87304688 40.16429687 -24.90234375 40.15234375 C-26.19269531 40.14332031 -27.48304688 40.13429687 -28.8125 40.125 C-30.10027344 40.11339844 -31.38804687 40.10179687 -32.71484375 40.08984375 C-35.73798403 39.82217451 -35.73798403 39.82217451 -36.875 41.1875 C-38.8399542 41.1875 -40.80546179 41.18395893 -42.76953125 41.125 C-44.88344419 41.10711607 -44.88344419 41.10711607 -46.890625 41.7265625 C-50.39269932 42.54003646 -53.62226105 41.48341193 -56.875 40.1875 C-62.41584375 36.00108473 -64.03837792 30.76215796 -65.5625 24.25 C-66.61880165 13.8982438 -66.61880165 13.8982438 -64.625 9.3125 C-59.94558528 3.63035355 -54.88516486 3.0690052 -47.875 2.1875 C-42.71478766 1.69219909 -37.55005616 1.35423294 -32.375 1.0625 C-31.30400055 0.99946182 -31.30400055 0.99946182 -30.21136475 0.93515015 C-20.14107968 0.34925843 -10.08963687 0.00712143 0 0 Z " fill="#03A61D" transform="translate(517.875,45.8125)"/>
<path d="M0 0 C1.60439941 -0.00700928 1.60439941 -0.00700928 3.24121094 -0.01416016 C8.53624581 -0.0035144 13.81581195 0.12373978 19.1015625 0.4453125 C20.04338379 0.50219238 20.98520508 0.55907227 21.95556641 0.61767578 C26.00844954 1.38792374 28.73053184 3.10715692 31.4375 6.1875 C34.67915879 14.20634015 32.48642747 24.24539748 29.625 32.125 C27.31438684 34.91464272 26.08366024 35.97211325 22.625 37.125 C21.23060336 37.19165376 19.83330125 37.21038199 18.4375 37.1875 C17.179375 37.166875 15.92125 37.14625 14.625 37.125 C14.295 38.115 13.965 39.105 13.625 40.125 C3.065 39.795 -7.495 39.465 -18.375 39.125 C-18.375 39.455 -18.375 39.785 -18.375 40.125 C-19.51839844 40.11339844 -20.66179688 40.10179687 -21.83984375 40.08984375 C-23.33072754 40.08046712 -24.82161309 40.07136679 -26.3125 40.0625 C-27.44461914 40.04993164 -27.44461914 40.04993164 -28.59960938 40.03710938 C-30.52494313 40.02847559 -32.45035581 40.07275667 -34.375 40.125 C-34.705 40.455 -35.035 40.785 -35.375 41.125 C-37.3399542 41.125 -39.30546179 41.12145893 -41.26953125 41.0625 C-43.38344419 41.04461607 -43.38344419 41.04461607 -45.390625 41.6640625 C-48.89895008 42.47898841 -52.11338671 41.40751061 -55.375 40.125 C-60.90277314 36.23043256 -62.87030106 30.50396305 -64.375 24.125 C-65.85453571 12.22021729 -65.85453571 12.22021729 -62.25 7.4375 C-56.55152507 2.85394407 -50.16180715 2.62715194 -43.125 2.0625 C-41.65691895 1.9389917 -41.65691895 1.9389917 -40.15917969 1.81298828 C-37.23186388 1.57261519 -34.30382927 1.34609189 -31.375 1.125 C-30.20517578 1.03387939 -30.20517578 1.03387939 -29.01171875 0.94091797 C-19.34473575 0.21153975 -9.69309007 0.02885666 0 0 Z " fill="#06A720" transform="translate(779.375,45.875)"/>
<path d="M0 0 C1.11592529 -0.0213501 2.23185059 -0.0427002 3.3815918 -0.06469727 C4.95034058 -0.07134399 4.95034058 -0.07134399 6.55078125 -0.078125 C7.96290894 -0.09214355 7.96290894 -0.09214355 9.40356445 -0.10644531 C10.53411255 0.06999512 10.53411255 0.06999512 11.6875 0.25 C20.97811314 14.18591972 18.9207048 42.89685391 17.6875 59.25 C16.6875 60.25 16.6875 60.25 14.40330505 60.37025452 C13.39292679 60.36803391 12.38254852 60.36581329 11.34155273 60.36352539 C10.2004454 60.36344986 9.05933807 60.36337433 7.88365173 60.36329651 C6.6420076 60.35813522 5.40036346 60.35297394 4.12109375 60.34765625 C2.22545433 60.34553383 2.22545433 60.34553383 0.29151917 60.34336853 C-3.07374889 60.33870582 -6.4389499 60.3297148 -9.80419922 60.31866455 C-13.2359967 60.30844846 -16.66780109 60.30387049 -20.09960938 60.29882812 C-26.83725824 60.2877738 -33.57487525 60.2710171 -40.3125 60.25 C-40.17326462 56.99968216 -40.02495815 53.74983939 -39.875 50.5 C-39.83568359 49.57960937 -39.79636719 48.65921875 -39.75585938 47.7109375 C-39.71396484 46.82148438 -39.67207031 45.93203125 -39.62890625 45.015625 C-39.59224854 44.19868164 -39.55559082 43.38173828 -39.51782227 42.54003906 C-39.32071158 40.34158698 -38.85968919 38.3824807 -38.3125 36.25 C-38.21001436 33.87574935 -38.12968619 31.50051162 -38.0625 29.125 C-37.65917705 19.75296161 -35.10566433 11.15514385 -32.3125 2.25 C-21.98647965 -0.46650154 -10.61408403 0.10978259 0 0 Z M-22.3125 13.25 C-24.80195084 20.42125826 -24.80195084 20.42125826 -26.26171875 27.546875 C-26.45024414 28.89072266 -26.45024414 28.89072266 -26.64257812 30.26171875 C-26.76052734 31.16535156 -26.87847656 32.06898438 -27 33 C-27.12955078 33.91910156 -27.25910156 34.83820313 -27.39257812 35.78515625 C-27.97316142 40.0304796 -28.3125 43.93924465 -28.3125 48.25 C-17.0925 48.25 -5.8725 48.25 5.6875 48.25 C5.79949015 35.45583193 5.79949015 35.45583193 4.75 22.875 C4.61948242 21.7921875 4.61948242 21.7921875 4.48632812 20.6875 C4.02557715 16.84665346 4.02557715 16.84665346 2.6875 13.25 C-5.5625 13.25 -13.8125 13.25 -22.3125 13.25 Z " fill="#08A622" transform="translate(773.3125,120.75)"/>
<path d="M0 0 C0.82054871 0.00007553 1.64109741 0.00015106 2.48651123 0.00022888 C3.36269104 0.00539017 4.23887085 0.01055145 5.14160156 0.01586914 C6.49816864 0.01799156 6.49816864 0.01799156 7.88214111 0.02015686 C10.76553683 0.02574628 13.64885439 0.03829686 16.53222656 0.05102539 C18.48925669 0.05604176 20.44628804 0.06060443 22.40332031 0.06469727 C27.19631909 0.07571226 31.98925958 0.09296965 36.78222656 0.11352539 C40.06994818 15.51258285 41.96099508 30.01996683 41.90722656 45.80102539 C41.91302734 47.56736328 41.91302734 47.56736328 41.91894531 49.36938477 C41.91765625 50.48506836 41.91636719 51.60075195 41.91503906 52.75024414 C41.91391113 53.75788818 41.9127832 54.76553223 41.91162109 55.80371094 C41.78222656 58.11352539 41.78222656 58.11352539 40.78222656 59.11352539 C39.00230732 59.20723163 37.21865917 59.2309681 35.4362793 59.22705078 C34.29517197 59.22697525 33.15406464 59.22689972 31.9783783 59.2268219 C30.73673416 59.22166061 29.49509003 59.21649933 28.21582031 59.21118164 C26.32018089 59.20905922 26.32018089 59.20905922 24.38624573 59.20689392 C21.02097767 59.20223121 17.65577666 59.19324019 14.29052734 59.18218994 C10.85872987 59.17197385 7.42692548 59.16739588 3.99511719 59.16235352 C-2.74253168 59.15129919 -9.48014869 59.13454249 -16.21777344 59.11352539 C-16.29637252 53.2474885 -16.18237991 47.53461092 -15.48339844 41.69946289 C-15.40536987 41.04563629 -15.32734131 40.39180969 -15.24694824 39.71817017 C-14.99516771 37.64054856 -14.73263225 35.56451739 -14.46777344 33.48852539 C-14.37951294 32.78163574 -14.29125244 32.07474609 -14.20031738 31.34643555 C-12.90706708 21.06809977 -11.2853928 11.03433694 -8.21777344 1.11352539 C-5.40583543 0.31530723 -2.91954059 -0.00901093 0 0 Z M1.78222656 12.11352539 C1.12337088 15.13200375 0.48019444 18.15260556 -0.15527344 21.17602539 C-0.33767578 22.00424805 -0.52007812 22.8324707 -0.70800781 23.68579102 C-2.36040474 31.64733983 -2.66064279 38.7565657 -3.21777344 47.11352539 C8.00222656 47.11352539 19.22222656 47.11352539 30.78222656 47.11352539 C31.48890017 28.96237403 31.48890017 28.96237403 26.78222656 12.11352539 C24.92853045 12.02614894 23.07155115 12.00654386 21.21582031 12.01586914 C20.09111328 12.0190918 18.96640625 12.02231445 17.80761719 12.02563477 C16.62361328 12.03401367 15.43960937 12.04239258 14.21972656 12.05102539 C13.03185547 12.05553711 11.84398437 12.06004883 10.62011719 12.06469727 C7.6741043 12.07652864 4.72818976 12.09301252 1.78222656 12.11352539 Z " fill="#06A620" transform="translate(486.2177734375,121.886474609375)"/>
<path d="M0 0 C39.89910152 -0.27522462 39.89910152 -0.27522462 49 2 C49 11.9 49 21.8 49 32 C42.14734809 32.62296836 35.63844125 33.14208497 28.8125 33.0625 C28.05130859 33.05798828 27.29011719 33.05347656 26.50585938 33.04882812 C24.67053705 33.03728522 22.83525648 33.01936378 21 33 C21 33.66 21 34.32 21 35 C14.73 35 8.46 35 2 35 C0.26958004 23.21151403 -0.23291351 11.90446819 0 0 Z M13 13 C13.33 15.97 13.66 18.94 14 22 C17.64616671 21.86183041 21.29183074 21.71318466 24.9375 21.5625 C26.49887695 21.50352539 26.49887695 21.50352539 28.09179688 21.44335938 C29.57583008 21.38051758 29.57583008 21.38051758 31.08984375 21.31640625 C32.00628662 21.27974854 32.92272949 21.24309082 33.86694336 21.20532227 C35.9820728 21.22996136 35.9820728 21.22996136 37 20 C37.04080783 18.00041636 37.04254356 15.99954746 37 14 C31.63510405 13.09516363 26.49682543 12.87696338 21.0625 12.9375 C20.28326172 12.94201172 19.50402344 12.94652344 18.70117188 12.95117188 C16.80074732 12.96283092 14.90036294 12.98076123 13 13 Z " fill="#01A31C" transform="translate(334,101)"/>
<path d="M0 0 C1.00449692 -0.00095673 2.00899384 -0.00191345 3.04393005 -0.00289917 C5.14557967 -0.00357456 7.24723144 -0.00176544 9.34887695 0.00244141 C12.58093851 0.00784989 15.81286429 0.00244885 19.04492188 -0.00390625 C21.09244822 -0.00324635 23.13997449 -0.00196701 25.1875 0 C26.15716202 -0.00202423 27.12682404 -0.00404846 28.12586975 -0.00613403 C29.01447189 -0.00298187 29.90307404 0.00017029 30.81860352 0.00341797 C31.99580711 0.00461136 31.99580711 0.00461136 33.1967926 0.00582886 C34.99609375 0.1328125 34.99609375 0.1328125 35.99609375 1.1328125 C35.90591379 3.32331271 35.74943167 5.5112785 35.55859375 7.6953125 C35.45675781 8.89285156 35.35492187 10.09039062 35.25 11.32421875 C35.12431641 12.71447266 35.12431641 12.71447266 34.99609375 14.1328125 C33.70622559 14.15786865 32.41635742 14.1829248 31.08740234 14.20874023 C26.23787852 14.30390671 21.38846217 14.40384679 16.5390625 14.50512695 C14.45217426 14.5480677 12.36526002 14.58976539 10.27832031 14.63012695 C-5.44732288 14.93213241 -5.44732288 14.93213241 -21.140625 15.92773438 C-25.76059102 16.25863235 -30.37520292 16.2178295 -35.00390625 16.1328125 C-36.50967207 11.61551505 -37.1429625 8.7447955 -36.00390625 4.1328125 C-33.71344065 3.64723379 -31.42177207 3.16931841 -29.12890625 2.6953125 C-27.85273438 2.42847656 -26.5765625 2.16164062 -25.26171875 1.88671875 C-16.88017917 0.30320433 -8.51120625 -0.0181079 0 0 Z " fill="#F9FDFA" transform="translate(502.00390625,57.8671875)"/>
<path d="M0 0 C1.53935211 0.00212242 1.53935211 0.00212242 3.10980225 0.00428772 C6.33885809 0.00981745 9.56784065 0.02235604 12.796875 0.03515625 C15.0065094 0.04018036 17.21614491 0.04474165 19.42578125 0.04882812 C24.79950353 0.05976371 30.17318403 0.07642987 35.546875 0.09765625 C35.40538511 1.70221185 35.25851814 3.30629392 35.109375 4.91015625 C34.98755859 6.25013672 34.98755859 6.25013672 34.86328125 7.6171875 C34.546875 10.09765625 34.546875 10.09765625 33.546875 13.09765625 C32.29253662 13.15300537 31.03819824 13.20835449 29.74584961 13.26538086 C25.02116453 13.47431077 20.29658046 13.68545605 15.57202148 13.8972168 C13.54047221 13.9879755 11.50889722 14.07816059 9.47729492 14.16772461 C-1.14128434 14.63622983 -11.74908075 15.12265325 -22.34960938 15.91015625 C-27.0520666 16.19425688 -31.74445354 16.18576029 -36.453125 16.09765625 C-38.22034661 11.56915087 -38.54512544 7.93342918 -38.453125 3.09765625 C-36.2036869 2.78113695 -33.95353356 2.4697004 -31.703125 2.16015625 C-30.45015625 1.98613281 -29.1971875 1.81210937 -27.90625 1.6328125 C-18.60766811 0.45708041 -9.36869049 -0.05004955 0 0 Z " fill="#FAFDFB" transform="translate(765.453125,57.90234375)"/>
<path d="M0 0 C39.89910152 -0.27522462 39.89910152 -0.27522462 49 2 C49 11.9 49 21.8 49 32 C45.37 32 41.74 32 38 32 C38 31.67 38 31.34 38 31 C40.97 31 43.94 31 47 31 C47 22.09 47 13.18 47 4 C32.15 3.34 17.3 2.68 2 2 C2.33 12.56 2.66 23.12 3 34 C8.94 34 14.88 34 21 34 C21 34.33 21 34.66 21 35 C14.73 35 8.46 35 2 35 C0.26958004 23.21151403 -0.23291351 11.90446819 0 0 Z " fill="#55C368" transform="translate(334,101)"/>
<path d="M0 0 C4.68139254 -0.02465288 9.36274759 -0.04283739 14.04418945 -0.05493164 C15.63794614 -0.05997157 17.23169819 -0.0668035 18.82543945 -0.07543945 C21.11150253 -0.08751999 23.39750467 -0.09323155 25.68359375 -0.09765625 C26.40026718 -0.10281754 27.11694061 -0.10797882 27.85533142 -0.11329651 C29.57063672 -0.11349263 31.28581266 -0.06192007 33 0 C36.54338194 3.54338194 34 9.98890121 34 15 C49.84 15.33 65.68 15.66 82 16 C81.505 11.545 81.505 11.545 81 7 C80.2575 6.71125 79.515 6.4225 78.75 6.125 C76.43260203 5.17697356 74.22082885 4.15154089 72 3 C72.66 2.67 73.32 2.34 74 2 C76.3828125 2.99609375 76.3828125 2.99609375 79.125 4.4375 C80.49011719 5.14712891 80.49011719 5.14712891 81.8828125 5.87109375 C82.58148437 6.24363281 83.28015625 6.61617187 84 7 C84.02688151 8.64574566 84.04634123 10.29161413 84.0625 11.9375 C84.07410156 12.85402344 84.08570313 13.77054688 84.09765625 14.71484375 C84 17 84 17 83 18 C81.40389018 18.09333705 79.80366572 18.11745372 78.20483398 18.11352539 C77.18385117 18.11344986 76.16286835 18.11337433 75.11094666 18.11329651 C74.0005452 18.10813522 72.89014374 18.10297394 71.74609375 18.09765625 C70.61551041 18.0962413 69.48492706 18.09482635 68.32008362 18.09336853 C64.69252935 18.08775019 61.06503576 18.07519458 57.4375 18.0625 C54.98502693 18.05748736 52.5325529 18.05292405 50.08007812 18.04882812 C44.05336187 18.0377748 38.02669124 18.02049788 32 18 C32 12.39 32 6.78 32 1 C21.44 1 10.88 1 0 1 C0 0.67 0 0.34 0 0 Z " fill="#5FC671" transform="translate(839,163)"/>
<path d="M0 0 C4.14749379 4.5424932 5.86999199 10.52984787 6.1875 16.5625 C6.0946875 17.7690625 6.0946875 17.7690625 6 19 C5.34 19 4.68 19 4 19 C4 19.66 4 20.32 4 21 C-1.51756476 21.0493521 -7.03500171 21.08569662 -12.55273438 21.10986328 C-14.43068682 21.11993534 -16.30862353 21.13359362 -18.18652344 21.15087891 C-20.8822009 21.17507453 -23.57767146 21.18647083 -26.2734375 21.1953125 C-27.11619232 21.20563507 -27.95894714 21.21595764 -28.82723999 21.22659302 C-30.88621247 21.22699144 -32.94467935 21.12257588 -35 21 C-37 19 -37 19 -39 5 C-57.81 5.495 -57.81 5.495 -77 6 C-77 5.67 -77 5.34 -77 5 C-67.12996344 3.65025141 -57.40782466 2.80563043 -47.4375 2.8125 C-46.05461792 2.8115332 -46.05461792 2.8115332 -44.64379883 2.81054688 C-38.13536471 2.86463529 -38.13536471 2.86463529 -37 4 C-36.34 8.62 -35.68 13.24 -35 18 C-22.13 18 -9.26 18 4 18 C3.01 15.03 3.01 15.03 2 12 C1.63239269 9.67182036 1.29758419 7.3381615 1 5 C0.68033861 3.33065717 0.35268934 1.6626783 0 0 Z " fill="#38B84E" transform="translate(183,103)"/>
<path d="M0 0 C10.08219819 -0.10874366 20.0140987 0.04362483 30.0625 1 C31.66448242 1.14308594 31.66448242 1.14308594 33.29882812 1.2890625 C35.86657508 1.51935371 38.43349919 1.75628127 41 2 C41 2.33 41 2.66 41 3 C27.94910937 3.17047607 15.07230553 2.56836111 2 2 C2 24.77 2 47.54 2 71 C0.68 70.67 -0.64 70.34 -2 70 C-1.505 69.01 -1.505 69.01 -1 68 C-0.34 68.33 0.32 68.66 1 69 C0.8934182 68.04839241 0.8934182 68.04839241 0.78468323 67.07756042 C0.00242146 59.4468555 -0.13030502 51.90443572 -0.09765625 44.23828125 C-0.0962413 42.96647507 -0.09482635 41.69466888 -0.09336853 40.38432312 C-0.08875504 37.04221611 -0.07980852 33.70018063 -0.06866455 30.35809326 C-0.05834004 26.93209442 -0.05384753 23.50608812 -0.04882812 20.08007812 C-0.03785922 13.38669941 -0.02116677 6.69335382 0 0 Z " fill="#A2DEAD" transform="translate(653,72)"/>
<path d="M0 0 C1.19951797 -0.00807175 2.39903595 -0.01614349 3.63490295 -0.02445984 C6.1518513 -0.0382085 8.66881756 -0.04897128 11.18579102 -0.05688477 C13.76462245 -0.06849744 16.34342819 -0.08909201 18.92211914 -0.1184082 C22.65657804 -0.16080486 26.39033131 -0.17720505 30.125 -0.1875 C31.28120346 -0.20500809 32.43740692 -0.22251617 33.62864685 -0.24055481 C34.6972847 -0.23762924 35.76592255 -0.23470367 36.86694336 -0.23168945 C38.27731117 -0.24048882 38.27731117 -0.24048882 39.71617126 -0.24946594 C42.09765625 0.23828125 42.09765625 0.23828125 43.88160706 2.09577942 C45.23625343 4.48246933 45.72184037 6.53240689 46.09765625 9.23828125 C43.84985875 7.1859444 43.09543205 6.23160864 42.09765625 3.23828125 C34.6452712 3.21272902 27.19289763 3.19533022 19.74047852 3.18334961 C17.21020078 3.17835002 14.6799259 3.17154816 12.1496582 3.1628418 C8.49299412 3.15058321 4.83636853 3.14500904 1.1796875 3.140625 C0.06560013 3.13546371 -1.04848724 3.13030243 -2.19633484 3.12498474 C-15.67395321 3.03093518 -15.67395321 3.03093518 -28.90234375 5.23828125 C-30.31769153 5.30285004 -31.73572064 5.32439164 -33.15234375 5.30078125 C-35.00859375 5.26984375 -35.00859375 5.26984375 -36.90234375 5.23828125 C-34.04572098 3.67953047 -31.4685209 2.79426672 -28.27734375 2.17578125 C-27.50132813 2.01980469 -26.7253125 1.86382812 -25.92578125 1.703125 C-17.29231286 0.37575712 -8.72595885 0.05644147 0 0 Z " fill="#AFE2B8" transform="translate(128.90234375,73.76171875)"/>
<path d="M0 0 C5.53588533 -0.02464775 11.071739 -0.04283496 16.60766602 -0.05493164 C18.4924373 -0.05997244 20.37720465 -0.06680498 22.26196289 -0.07543945 C24.96501636 -0.08751617 27.66801831 -0.09323068 30.37109375 -0.09765625 C31.21900986 -0.10281754 32.06692596 -0.10797882 32.9405365 -0.11329651 C34.96071068 -0.11349195 36.98077934 -0.06206211 39 0 C41.86530361 2.86530361 40.82090179 11.78565203 41.0625 15.9375 C41.10735535 16.68521667 41.15221069 17.43293335 41.19842529 18.20330811 C42.19536631 35.13688964 42.20846418 52.04384416 42 69 C41.67 69 41.34 69 41 69 C38.99878222 37.02129725 38.99878222 37.02129725 38.375 23.75 C38.33511963 22.93901855 38.29523926 22.12803711 38.25415039 21.29248047 C37.95170721 14.51020962 38 7.81124715 38 1 C25.46 1 12.92 1 0 1 C0 0.67 0 0.34 0 0 Z " fill="#9EDCA8" transform="translate(230,144)"/>
<path d="M0 0 C0.33 0 0.66 0 1 0 C1.21560191 6.79146026 0.56364822 10.96358299 -1 18 C-20.47 18 -39.94 18 -60 18 C-60 15.03 -60 12.06 -60 9 C-59.67 9 -59.34 9 -59 9 C-59 11.31 -59 13.62 -59 16 C-40.52 16 -22.04 16 -3 16 C-2.34 11.71 -1.68 7.42 -1 3 C-0.67 2.01 -0.34 1.02 0 0 Z " fill="#41BB56" transform="translate(154,166)"/>
<path d="M0 0 C1.53935211 0.00212242 1.53935211 0.00212242 3.10980225 0.00428772 C6.33885809 0.00981745 9.56784065 0.02235604 12.796875 0.03515625 C15.0065094 0.04018036 17.21614491 0.04474165 19.42578125 0.04882812 C24.79950675 0.05976372 30.17317852 0.0769784 35.546875 0.09765625 C35.216875 3.39765625 34.886875 6.69765625 34.546875 10.09765625 C34.216875 10.09765625 33.886875 10.09765625 33.546875 10.09765625 C33.546875 7.45765625 33.546875 4.81765625 33.546875 2.09765625 C25.82775787 2.19075824 18.10893011 2.29816022 10.39013672 2.41503906 C7.76973873 2.45308594 5.14929283 2.48797895 2.52880859 2.51953125 C-1.2596132 2.56571392 -5.04771187 2.62361567 -8.8359375 2.68359375 C-10.56494797 2.70092056 -10.56494797 2.70092056 -12.32888794 2.71859741 C-20.49583872 2.86347207 -28.39471206 3.77855692 -36.453125 5.09765625 C-36.123125 8.72765625 -35.793125 12.35765625 -35.453125 16.09765625 C-38.52832667 13.02245458 -38.44876367 10.77584375 -38.4765625 6.453125 C-38.46882812 5.34582031 -38.46109375 4.23851562 -38.453125 3.09765625 C-36.2036869 2.78113695 -33.95353356 2.4697004 -31.703125 2.16015625 C-30.45015625 1.98613281 -29.1971875 1.81210937 -27.90625 1.6328125 C-18.60766811 0.45708041 -9.36869049 -0.05004955 0 0 Z " fill="#B6E5BE" transform="translate(765.453125,57.90234375)"/>
<path d="M0 0 C0.33 0 0.66 0 1 0 C0.99887207 0.78947021 0.99774414 1.57894043 0.99658203 2.39233398 C1.02282375 22.96042242 1.02282375 22.96042242 6.56640625 42.58984375 C9.10469476 48.62778889 10.11393781 54.48275718 10 61 C7.69 61 5.38 61 3 61 C3.13894148 64.10451549 3.287343 67.20850835 3.4375 70.3125 C3.47681641 71.19357422 3.51613281 72.07464844 3.55664062 72.98242188 C3.59853516 73.82998047 3.64042969 74.67753906 3.68359375 75.55078125 C3.72025146 76.33106689 3.75690918 77.11135254 3.79467773 77.9152832 C3.94125263 80.19329101 3.94125263 80.19329101 5 83 C5.99 83.66 6.98 84.32 8 85 C5.625 84.8125 5.625 84.8125 3 84 C0.27810329 79.41429605 0.73906856 74.40566019 0.8125 69.25 C0.81314453 68.37472656 0.81378906 67.49945313 0.81445312 66.59765625 C0.85950307 60.14049693 0.85950307 60.14049693 2 59 C3.99958364 58.95919217 6.00045254 58.95745644 8 59 C7.79503906 58.29875 7.59007812 57.5975 7.37890625 56.875 C4.91159086 48.18627212 4.91159086 48.18627212 4.5625 43.875 C4.05429527 40.37403407 3.61154825 39.16604813 1.98046875 36.26171875 C-1.1199103 29.4884337 -0.42608161 22.21415542 -0.25 14.9375 C-0.2298969 13.48505077 -0.21165288 12.03257456 -0.1953125 10.58007812 C-0.15163506 7.05281666 -0.08282107 3.52658501 0 0 Z " fill="#86D493" transform="translate(192,71)"/>
<path d="M0 0 C1.00797134 0.16265854 2.01594269 0.32531708 3.05445862 0.49290466 C6.80389884 0.97479636 10.35170611 1.12045559 14.12866211 1.11352539 C14.80268066 1.11367142 15.47669922 1.11381744 16.17114258 1.1139679 C18.37324372 1.11327769 20.5752576 1.10552764 22.77734375 1.09765625 C24.31433567 1.09578889 25.85132819 1.09436649 27.38832092 1.09336853 C31.41437451 1.08956837 35.44039146 1.0797597 39.46643066 1.06866455 C43.58243311 1.0583964 47.69844153 1.05385938 51.81445312 1.04882812 C59.87631881 1.03813497 67.93815483 1.02108891 76 1 C76 1.66 76 2.32 76 3 C64.66376846 4.07917286 53.38226689 4.15406499 42.00463867 4.13037109 C38.93989124 4.12500419 35.87528992 4.13034969 32.81054688 4.13671875 C4.36584619 4.15227884 4.36584619 4.15227884 1.17163086 1.45751953 C0.78499268 0.97653809 0.39835449 0.49555664 0 0 Z " fill="#B8E5BF" transform="translate(467,203)"/>
<path d="M0 0 C0 0.33 0 0.66 0 1 C-0.89924194 1.07516846 -0.89924194 1.07516846 -1.81665039 1.15185547 C-4.56592826 1.38575757 -7.31416322 1.63029759 -10.0625 1.875 C-11.00544922 1.95363281 -11.94839844 2.03226562 -12.91992188 2.11328125 C-17.01478886 2.48424481 -20.9324023 2.85916686 -24.875 4.0625 C-27.77477628 4.93243288 -29.93872274 5.21727007 -32.9375 5.125 C-34.09572266 5.09792969 -34.09572266 5.09792969 -35.27734375 5.0703125 C-35.84582031 5.04710938 -36.41429687 5.02390625 -37 5 C-36.83701416 6.15951172 -36.67402832 7.31902344 -36.50610352 8.51367188 C-35.99481023 12.61844779 -35.8856511 16.64147326 -35.90234375 20.78125 C-35.9037587 21.48020386 -35.90517365 22.17915771 -35.90663147 22.89929199 C-35.9121633 25.09957429 -35.92470223 27.29974923 -35.9375 29.5 C-35.94252384 31.00520685 -35.94708518 32.51041532 -35.95117188 34.015625 C-35.96211023 37.67711735 -35.97932641 41.33854817 -36 45 C-36.66 44.67 -37.32 44.34 -38 44 C-38.02464705 38.32169922 -38.04283462 32.64342931 -38.05493164 26.96508789 C-38.05997256 25.03181415 -38.06680519 23.09854424 -38.07543945 21.1652832 C-38.08751565 18.39273128 -38.09323057 15.62022959 -38.09765625 12.84765625 C-38.10281754 11.97786636 -38.10797882 11.10807648 -38.11329651 10.21192932 C-38.11349185 8.14094186 -38.06208168 6.07005676 -38 4 C-30.8375048 -3.1624952 -9.19708996 -0.26158584 0 0 Z " fill="#69CA7A" transform="translate(602,73)"/>
<path d="M0 0 C0.93352295 -0.00064453 1.8670459 -0.00128906 2.82885742 -0.00195312 C9.48991783 0.05241783 9.48991783 0.05241783 10.625 1.1875 C11.06864779 8.79141683 10.952772 15.91321249 8.625 23.1875 C7.965 23.1875 7.305 23.1875 6.625 23.1875 C6.521875 24.156875 6.41875 25.12625 6.3125 26.125 C5.67870121 30.67343839 4.17744173 34.88167104 2.625 39.1875 C1.0838702 35.23713563 2.22640606 32.42179099 3.5 28.5 C4.05300781 26.76169922 4.05300781 26.76169922 4.6171875 24.98828125 C5.625 22.1875 5.625 22.1875 6.625 21.1875 C6.85071184 19.77629098 7.01888349 18.35573957 7.16015625 16.93359375 C7.27822632 15.78008423 7.27822632 15.78008423 7.39868164 14.60327148 C7.4939917 13.62044189 7.58930176 12.6376123 7.6875 11.625 C7.996875 8.510625 8.30625 5.39625 8.625 2.1875 C-8.7 2.6825 -8.7 2.6825 -26.375 3.1875 C-26.375 2.8575 -26.375 2.5275 -26.375 2.1875 C-17.5440393 0.66819493 -8.96098083 -0.0061235 0 0 Z " fill="#9FDDAA" transform="translate(181.375,162.8125)"/>
<path d="M0 0 C1.90046519 -0.0117109 3.80089301 -0.03244901 5.70117188 -0.06152344 C8.4860604 -0.10387646 11.27000694 -0.12029839 14.05517578 -0.13061523 C14.90506073 -0.14812332 15.75494568 -0.16563141 16.63058472 -0.18367004 C22.47446759 -0.1619123 22.47446759 -0.1619123 24.99316406 2.32177734 C25.30495605 2.97299561 25.61674805 3.62421387 25.93798828 4.29516602 C25.60798828 4.95516602 25.27798828 5.61516602 24.93798828 6.29516602 C24.27798828 5.63516602 23.61798828 4.97516602 22.93798828 4.29516602 C16.6611264 2.97212031 10.27156006 3.07576176 3.87939453 2.97875977 C2.73510483 2.95797867 1.59081512 2.93719757 0.41184998 2.91578674 C-3.22521248 2.85066809 -6.86234403 2.79158212 -10.49951172 2.73266602 C-12.97282601 2.68944493 -15.44613344 2.64582952 -17.91943359 2.60180664 C-23.96688767 2.49502553 -30.01440971 2.39319072 -36.06201172 2.29516602 C-36.06201172 1.96516602 -36.06201172 1.63516602 -36.06201172 1.29516602 C-24.04114119 0.44847169 -12.0505686 0.05176906 0 0 Z " fill="#9EDCA9" transform="translate(522.06201171875,95.704833984375)"/>
<path d="M0 0 C1.96646484 0.01353516 1.96646484 0.01353516 3.97265625 0.02734375 C4.95105469 0.03894531 5.92945313 0.05054688 6.9375 0.0625 C6.9375 0.7225 6.9375 1.3825 6.9375 2.0625 C-4.39873154 3.14167286 -15.68023311 3.21656499 -27.05786133 3.19287109 C-30.12260876 3.18750419 -33.18721008 3.19284969 -36.25195312 3.19921875 C-46.23647895 3.20225236 -56.12271349 3.1082918 -66.0625 2.0625 C-66.0625 1.7325 -66.0625 1.4025 -66.0625 1.0625 C-65.46860977 1.06472061 -64.87471954 1.06694122 -64.26283264 1.06922913 C-58.04916997 1.09145245 -51.83551871 1.10647738 -45.62182617 1.11743164 C-43.30671734 1.12244235 -40.99161163 1.12925271 -38.67651367 1.13793945 C-35.33771996 1.15014842 -31.99896831 1.15576108 -28.66015625 1.16015625 C-27.63479263 1.16531754 -26.60942902 1.17047882 -25.55299377 1.17579651 C-20.31732743 1.1761999 -15.22221917 0.97824763 -10.02978516 0.28735352 C-6.67939532 -0.09558382 -3.37140745 -0.03037304 0 0 Z " fill="#ADE1B6" transform="translate(799.0625,203.9375)"/>
<path d="M0 0 C1.00449692 -0.00095673 2.00899384 -0.00191345 3.04393005 -0.00289917 C5.14557967 -0.00357456 7.24723144 -0.00176544 9.34887695 0.00244141 C12.58093851 0.00784989 15.81286429 0.00244885 19.04492188 -0.00390625 C21.09244822 -0.00324635 23.13997449 -0.00196701 25.1875 0 C26.15716202 -0.00202423 27.12682404 -0.00404846 28.12586975 -0.00613403 C29.01447189 -0.00298187 29.90307404 0.00017029 30.81860352 0.00341797 C31.60340591 0.00421356 32.38820831 0.00500916 33.1967926 0.00582886 C34.99609375 0.1328125 34.99609375 0.1328125 35.99609375 1.1328125 C35.66609375 5.4228125 35.33609375 9.7128125 34.99609375 14.1328125 C25.75609375 14.1328125 16.51609375 14.1328125 6.99609375 14.1328125 C6.99609375 13.8028125 6.99609375 13.4728125 6.99609375 13.1328125 C15.90609375 13.1328125 24.81609375 13.1328125 33.99609375 13.1328125 C33.99609375 9.5028125 33.99609375 5.8728125 33.99609375 2.1328125 C15.84609375 2.1328125 -2.30390625 2.1328125 -21.00390625 2.1328125 C-21.00390625 1.8028125 -21.00390625 1.4728125 -21.00390625 1.1328125 C-13.98036535 0.29777493 -7.06980369 -0.01504126 0 0 Z " fill="#9CDCA7" transform="translate(502.00390625,57.8671875)"/>
<path d="M0 0 C1.49153494 0.00502856 2.98307154 0.00958905 4.47460938 0.01367188 C8.08727462 0.02456196 11.69987632 0.04175064 15.3125 0.0625 C15.3125 0.3925 15.3125 0.7225 15.3125 1.0625 C14.39549316 1.11784912 13.47848633 1.17319824 12.53369141 1.23022461 C9.08567659 1.4392809 5.63777847 1.65010026 2.18994141 1.86206055 C0.70625963 1.95292118 -0.77746363 2.0431074 -2.26123047 2.13256836 C-10.42158516 2.62505099 -18.55857362 3.17264711 -26.6875 4.0625 C-25.28990095 7.60768884 -25.28990095 7.60768884 -23.6875 11.0625 C-27.5625 9.1875 -27.5625 9.1875 -28.6875 8.0625 C-28.8125 5.0625 -28.8125 5.0625 -28.6875 2.0625 C-23.77908506 -2.84591494 -6.98410139 -0.04134451 0 0 Z " fill="#84D391" transform="translate(902.6875,104.9375)"/>
<path d="M0 0 C6.6 0 13.2 0 20 0 C20 9.9 20 19.8 20 30 C16.37 30 12.74 30 9 30 C9 29.67 9 29.34 9 29 C11.97 29 14.94 29 18 29 C18 20.09 18 11.18 18 2 C12.06 1.67 6.12 1.34 0 1 C0 0.67 0 0.34 0 0 Z " fill="#31B648" transform="translate(363,103)"/>
<path d="M0 0 C4.14749379 4.5424932 5.86999199 10.52984787 6.1875 16.5625 C6.0946875 17.7690625 6.0946875 17.7690625 6 19 C2.72108075 20.63945963 -0.90613534 20.12030178 -4.5078125 20.09765625 C-5.76874222 20.09553383 -5.76874222 20.09553383 -7.05514526 20.09336853 C-9.74513275 20.08776237 -12.43503759 20.07520886 -15.125 20.0625 C-16.94661338 20.05748579 -18.76822807 20.05292275 -20.58984375 20.04882812 C-25.05992777 20.03779094 -29.52994986 20.0205222 -34 20 C-34 19.67 -34 19.34 -34 19 C-6.83596307 17.80611597 -6.83596307 17.80611597 4 18 C3.68160156 17.08347656 3.36320312 16.16695312 3.03515625 15.22265625 C1.93684545 11.80338678 1.45279222 8.55765314 1 5 C0.68033861 3.33065717 0.35268934 1.6626783 0 0 Z " fill="#8FD79B" transform="translate(183,103)"/>
<path d="M0 0 C0.99 0 1.98 0 3 0 C2.34 5.28 1.68 10.56 1 16 C0.34 16 -0.32 16 -1 16 C-0.979375 17.1446875 -0.95875 18.289375 -0.9375 19.46875 C-0.9375 23.87501933 -1.40250274 28.13988483 -2 32.5 C-2.09539062 33.22703125 -2.19078125 33.9540625 -2.2890625 34.703125 C-2.52146167 36.46935867 -2.76006638 38.23477406 -3 40 C-3.33 40 -3.66 40 -4 40 C-4.22331286 32.17164364 -3.99030075 24.58178647 -3.0625 16.8125 C-2.93222412 15.71723999 -2.93222412 15.71723999 -2.79931641 14.59985352 C-2.41819675 11.59844817 -1.95934992 8.87804976 -1 6 C-0.34 6 0.32 6 1 6 C0.67 4.02 0.34 2.04 0 0 Z " fill="#68C979" transform="translate(202,156)"/>
<path d="M0 0 C5.94 0 11.88 0 18 0 C18.33 1.32 18.66 2.64 19 4 C18.34 3.67 17.68 3.34 17 3 C14.45384991 2.76827173 11.92603775 2.58105471 9.375 2.4375 C8.66859375 2.39431641 7.9621875 2.35113281 7.234375 2.30664062 C5.48981463 2.20055249 3.74493303 2.09977111 2 2 C2.23396484 3.55460938 2.23396484 3.55460938 2.47265625 5.140625 C2.66967277 6.51035891 2.86626511 7.88015389 3.0625 9.25 C3.16626953 9.93191406 3.27003906 10.61382812 3.37695312 11.31640625 C3.86524925 14.7849925 4.22762141 17.66911113 3 21 C2.49968267 18.77043053 2.00261572 16.54026012 1.51171875 14.30859375 C1.14650871 12.66096679 0.76588687 11.01672484 0.375 9.375 C-0.11277279 6.28577231 0 3.127499 0 0 Z " fill="#7ACF88" transform="translate(333,155)"/>
<path d="M0 0 C0 0.33 0 0.66 0 1 C-0.89924194 1.07516846 -0.89924194 1.07516846 -1.81665039 1.15185547 C-4.56592826 1.38575757 -7.31416322 1.63029759 -10.0625 1.875 C-11.00544922 1.95363281 -11.94839844 2.03226562 -12.91992188 2.11328125 C-17.01478886 2.48424481 -20.9324023 2.85916686 -24.875 4.0625 C-27.77477628 4.93243288 -29.93872274 5.21727007 -32.9375 5.125 C-34.09572266 5.09792969 -34.09572266 5.09792969 -35.27734375 5.0703125 C-35.84582031 5.04710938 -36.41429687 5.02390625 -37 5 C-37 4.34 -37 3.68 -37 3 C-24.58366358 0.04958343 -12.73163508 -0.36211623 0 0 Z " fill="#5EC66F" transform="translate(602,73)"/>
<path d="M0 0 C-3.26545761 1.88391785 -6.28111761 2.49287967 -10 3 C-9.67 6.3 -9.34 9.6 -9 13 C-1.74 13 5.52 13 13 13 C13 13.33 13 13.66 13 14 C7.86585533 14.83438262 2.88662654 15.21145226 -2.3125 15.25 C-3.02728516 15.270625 -3.74207031 15.29125 -4.47851562 15.3125 C-6.55078125 15.328125 -6.55078125 15.328125 -10 15 C-12.10827055 11.83759418 -12.33817465 10.49342531 -12.625 6.8125 C-12.69976562 5.91144531 -12.77453125 5.01039062 -12.8515625 4.08203125 C-12.90054687 3.39496094 -12.94953125 2.70789062 -13 2 C-8.50343896 -0.24828052 -4.92127034 -0.16682272 0 0 Z " fill="#5AC46C" transform="translate(476,60)"/>
<path d="M0 0 C1.48034764 0.47550561 2.95925021 0.95551216 4.4375 1.4375 C5.26121094 1.70433594 6.08492187 1.97117188 6.93359375 2.24609375 C9 3 9 3 10 4 C10.12774845 6.40939516 10.18521564 8.77749676 10.1875 11.1875 C10.20167969 12.50105469 10.21585938 13.81460938 10.23046875 15.16796875 C9.95982002 19.66807723 9.37938907 23.40839722 6.375 26.875 C5.92125 27.24625 5.4675 27.6175 5 28 C5 25 5 25 5.9609375 23.359375 C7.54636371 19.75938466 7.46998955 16.1446376 7.625 12.25 C7.66367187 11.45722656 7.70234375 10.66445312 7.7421875 9.84765625 C7.836108 7.89880584 7.91912822 5.94943549 8 4 C5.69 3.67 3.38 3.34 1 3 C0.67 2.01 0.34 1.02 0 0 Z " fill="#7DD18B" transform="translate(957,156)"/>
<path d="M0 0 C0.33 0 0.66 0 1 0 C1.19355213 7.65606218 1.3479743 14.66258031 -1 22 C-1.66 22 -2.32 22 -3 22 C-3.103125 22.969375 -3.20625 23.93875 -3.3125 24.9375 C-3.94629879 29.48593839 -5.44755827 33.69417104 -7 38 C-8.5411298 34.04963563 -7.39859394 31.23429099 -6.125 27.3125 C-5.75632813 26.15363281 -5.38765625 24.99476563 -5.0078125 23.80078125 C-4 21 -4 21 -3 20 C-2.70420295 18.51730105 -2.4625458 17.02368615 -2.24609375 15.52734375 C-2.11396484 14.62822266 -1.98183594 13.72910156 -1.84570312 12.80273438 C-1.71099609 11.85720703 -1.57628906 10.91167969 -1.4375 9.9375 C-1.29892578 8.98810547 -1.16035156 8.03871094 -1.01757812 7.06054688 C-0.67467814 4.7075435 -0.33566063 2.35404517 0 0 Z " fill="#90D79C" transform="translate(191,164)"/>
<path d="M0 0 C0.33 0 0.66 0 1 0 C1.2050094 5.87252725 0.55373069 10.83435538 -0.9375 16.5 C-2.35613698 22.00411099 -3.39475603 27.34256165 -4 33 C-4.33 33 -4.66 33 -5 33 C-5.21162403 26.26216408 -4.48600737 20.26321745 -3.0625 13.6875 C-2.88009766 12.80771484 -2.69769531 11.92792969 -2.50976562 11.02148438 C-1.73871064 7.32883197 -0.93241892 3.655559 0 0 Z " fill="#ADE2B6" transform="translate(63,146)"/>
<path d="M0 0 C2.97624366 4.46436549 2.62638086 8.76316467 2 14 C0.93365036 16.70296451 -0.30058517 18.6101979 -2 21 C-2.66 21 -3.32 21 -4 21 C-2.125 16.25 -2.125 16.25 -1 14 C-0.76970044 11.62876754 -0.58880058 9.25258057 -0.4375 6.875 C-0.35371094 5.59367188 -0.26992188 4.31234375 -0.18359375 2.9921875 C-0.09271484 1.51105469 -0.09271484 1.51105469 0 0 Z " fill="#4BBF5F" transform="translate(566,164)"/>
<path d="M0 0 C2.64 0 5.28 0 8 0 C8 0.33 8 0.66 8 1 C6.35 1 4.7 1 3 1 C3.44730469 1.50789062 3.89460938 2.01578125 4.35546875 2.5390625 C7.96286942 6.64642275 11.52114925 10.78321121 15 15 C11.34858644 13.4744094 9.09881888 11.27519091 6.375 8.4375 C3.48929319 5.30957946 3.48929319 5.30957946 0 3 C0 2.01 0 1.02 0 0 Z " fill="#4DC060" transform="translate(371,154)"/>
<path d="M0 0 C0.99 0.33 1.98 0.66 3 1 C4.1875 3.5625 4.1875 3.5625 5 6 C4.34 5.67 3.68 5.34 3 5 C2.67 9.95 2.34 14.9 2 20 C1.67 20 1.34 20 1 20 C0.67 13.4 0.34 6.8 0 0 Z " fill="#5EC66F" transform="translate(602,130)"/>
<path d="M0 0 C-3.26545761 1.88391785 -6.28111761 2.49287967 -10 3 C-10 5.31 -10 7.62 -10 10 C-11.5 8.8125 -11.5 8.8125 -13 7 C-13.1875 4.3125 -13.1875 4.3125 -13 2 C-8.50343896 -0.24828052 -4.92127034 -0.16682272 0 0 Z " fill="#97DAA2" transform="translate(476,60)"/>
<path d="M0 0 C-4.00996859 2.07412169 -7.15394977 3.12820363 -11.6875 3.0625 C-12.89986328 3.04896484 -12.89986328 3.04896484 -14.13671875 3.03515625 C-15.05904297 3.01775391 -15.05904297 3.01775391 -16 3 C-16 2.34 -16 1.68 -16 1 C-10.59255982 0.22750855 -5.46137814 -0.09752461 0 0 Z " fill="#A9E0B2" transform="translate(581,75)"/>
<path d="M0 0 C2.51239382 3.76859072 3.12663199 6.26239249 3.0625 10.6875 C3.05347656 11.49574219 3.04445313 12.30398437 3.03515625 13.13671875 C3.02355469 13.75160156 3.01195312 14.36648437 3 15 C0.25217311 9.68753468 -0.09669018 5.89810092 0 0 Z " fill="#9FDDA9" transform="translate(957,107)"/>
<path d="M0 0 C2.97069541 2.54631035 4.4775751 5.42230149 6 9 C5.67 9.66 5.34 10.32 5 11 C4.15504811 9.92570402 3.32445142 8.84010798 2.5 7.75 C2.0359375 7.14671875 1.571875 6.5434375 1.09375 5.921875 C0 4 0 4 0 0 Z " fill="#68C979" transform="translate(360,172)"/>
<path d="M0 0 C2.54384726 1.27192363 2.69368156 2.19948469 3.6875 4.8125 C3.95949219 5.49957031 4.23148437 6.18664062 4.51171875 6.89453125 C5.06812731 9.29376496 4.77364938 10.6894364 4 13 C3.67 11.02 3.34 9.04 3 7 C2.01 6.67 1.02 6.34 0 6 C0 4.02 0 2.04 0 0 Z " fill="#88D595" transform="translate(422,81)"/>
<path d="M0 0 C3.2542015 2.83430453 4.5206753 4.68607774 5 9 C2.5 6.75 2.5 6.75 0 4 C0 2.68 0 1.36 0 0 Z " fill="#65C876" transform="translate(366,183)"/>
<path d="M0 0 C0.99 0.495 0.99 0.495 2 1 C2.59355614 3.64860427 2.74209269 6.29197322 3 9 C2.34 9 1.68 9 1 9 C0.67 6.03 0.34 3.06 0 0 Z " fill="#9ADBA5" transform="translate(954,98)"/>
</svg>
